<svg width="6941" height="4267" viewBox="0 0 6941 4267" fill="none" xmlns="http://www.w3.org/2000/svg">
<g clip-path="url(#clip0_2_7564)">
<path opacity="0.3" d="M3861.46 4277.19C5594.1 4270.87 6941 4223.48 6941 4165.94C6941 4137.32 6606.66 4111.17 6057.22 4091.31C6059.52 4083.15 6061.22 4074.69 6061.22 4065.92V3676.95C6171.08 3570.78 6328.32 3371.68 6345.55 3090.88C6281.24 3140.27 6227.24 3196.89 6181.7 3255.66L6120.46 3252.27L6128.46 3238.89C6163.69 3214.59 6490.95 2978.4 6516.19 2566.04C6442.79 2622.51 6382.64 2688.21 6333.4 2755.9L6279.55 2749.75C6288.48 2722.21 6297.41 2694.82 6306.01 2667.9L6329.71 2628.36C6386.02 2588.04 6687.59 2354.47 6711.75 1959.49C6656.52 2001.96 6608.81 2049.65 6567.58 2099.67L6503.73 2085.36C6575.73 1997.8 6767.75 1725.62 6710.37 1373.11C6494.8 1630.38 6476.49 1969.64 6476.64 2079.36L6419.26 2066.58C6414.64 2015.66 6405.72 1963.65 6391.1 1911.65C6182.47 2225.99 6262.16 2569.11 6288.78 2659.58L6259.71 2747.6L6206.47 2741.59C6203.23 2679.74 6193.85 2616.04 6175.85 2552.34C6154.62 2584.19 6136.61 2616.35 6121.08 2648.67C6121.69 2621.89 6120.92 2594.35 6118.61 2566.35C6097.99 2587.27 6079.07 2609.11 6061.38 2631.27V2583.73C6061.38 2582.03 6060.91 2580.5 6060.91 2578.95C6147.08 2452.63 6240.46 2255.68 6220.62 2012.42C6149.23 2085.2 6095.22 2167.06 6054.61 2248.61L6003.53 2244.77C6009.99 2207.68 6016.29 2171.06 6022.45 2135.05C6026.45 2121.67 6031.06 2104.75 6035.99 2084.58C6035.83 2088.43 6035.83 2090.74 6035.83 2090.74C6035.83 2090.74 6362.64 1803.94 6327.24 1368.65C6179.54 1519.29 6106.76 1707.92 6070.76 1854.71C6070.92 1853.02 6070.92 1851.17 6071.06 1849.33C6088.92 1742.85 6104.6 1648.38 6117.08 1573.14C6155.54 1515.74 6354.32 1193.39 6236.01 815.344C6036.6 1135.85 6100.15 1525.12 6109.68 1576.36L6073.08 1777.17C6072.76 1657.15 6053.83 1522.35 5996.45 1392.19C5830.11 1741.31 5969.52 2079.05 6004.45 2153.52L5987.99 2243.69L5931.51 2239.37C5919.52 2178.6 5901.21 2116.74 5874.28 2055.97C5863.2 2079.2 5853.66 2102.44 5845.04 2125.52V972.13V686.864H5192.21L5222.83 680.4V409.14L5448.08 360.365L4484.76 151.406L3521.43 360.365L3746.68 409.14V680.4L3777.31 686.864H1197.34V972.13V1604.68H838.394H819.005L663.144 3094.1H693.607L609.6 4102.7C225.103 4120.71 0 4142.55 0 4166.1C0 4208.25 723.457 4245.03 1791.87 4264.1M3534.2 4277.8C3571.9 4277.8 3609.44 4277.8 3646.83 4277.64L3534.2 4277.8ZM3011.84 4276.88C3121.24 4277.33 3232.32 4277.64 3344.8 4277.8L3011.84 4276.88ZM1846.8 4264.87C2187.14 4270.72 2561.18 4274.72 2957.06 4276.57L1846.8 4264.87ZM1915.72 4065.92L1894.5 3810.35H2076.05C2093.91 3896.68 2112.98 3980.53 2133.75 4062.7C2059.59 4063.62 1986.97 4064.7 1915.72 4065.92ZM1788.33 3782.81L1785.57 3810.2H1791.57C1794.79 3935.44 1798.79 4019.31 1801.56 4067.77C1694.78 4069.61 1591.4 4071.77 1491.84 4073.93L1516.16 3782.81H1788.33ZM1870.8 4002.38L1876.19 4066.39C1872.49 4066.39 1868.8 4066.53 1865.11 4066.53L1870.8 4002.38ZM3900.85 3782.81H5103.27V4065.92C5103.27 4066.39 5103.43 4066.85 5103.43 4067.16C4726.79 4060.7 4308.59 4056.38 3865 4054.69C3875.47 3996.84 3890.7 3900.51 3900.85 3782.81ZM733.305 3093.96H1197.5V3782.81H1476.76L1452.46 4074.85C1143.04 4081.93 871.47 4090.7 649.604 4100.7L733.305 3093.96ZM2193.76 4061.92L2180.37 3810.35H2993.99L2974.45 4055.15C2702.88 4056.38 2441.32 4058.7 2193.76 4061.92ZM3048.92 3810.35H3086L3087.54 3782.96H3300.94C3307.26 3866.97 3316.94 3957.44 3330.18 4054.23C3228.78 4054.38 3128.46 4054.69 3029.53 4055.01L3048.92 3810.35Z" fill="#0087E1"/>
<path d="M3459.72 4267.03C5342.26 4267.03 6868.36 4215.22 6868.36 4151.32C6868.36 4087.42 5342.26 4035.62 3459.72 4035.62C1577.18 4035.62 51.0654 4087.42 51.0654 4151.32C51.0654 4215.22 1577.18 4267.03 3459.72 4267.03Z" fill="#DFE5FF"/>
<path d="M5735.18 3345.06C5735.18 3345.06 5535 2951 5719.95 2542.02C5880.26 2924.23 5735.18 3345.06 5735.18 3345.06Z" fill="#617EFC"/>
<path d="M5774.26 3243.66C5774.26 3243.66 6095.22 2947.16 6060.45 2497.1C5780.88 2796.98 5774.26 3243.66 5774.26 3243.66Z" fill="#617EFC"/>
<path d="M5835.35 2772.38C5835.35 2772.38 5635.18 2378.31 5820.12 1969.34C5980.45 2351.54 5835.35 2772.38 5835.35 2772.38Z" fill="#617EFC"/>
<path d="M5874.44 2670.97C5874.44 2670.97 6195.4 2374.47 6160.62 1924.41C5881.05 2224.3 5874.44 2670.97 5874.44 2670.97Z" fill="#617EFC"/>
<path d="M5955.37 2085.96C5955.37 2085.96 5755.2 1691.91 5940.14 1282.93C6100.46 1665.3 5955.37 2085.96 5955.37 2085.96Z" fill="#617EFC"/>
<path d="M5979.07 2005.2C5979.07 2005.2 6300.03 1708.7 6265.25 1258.64C5985.68 1558.67 5979.07 2005.2 5979.07 2005.2Z" fill="#617EFC"/>
<path d="M6052.61 1479.58C6052.61 1479.58 6303.86 1118.14 6175.55 686.547C5965.53 1041.98 6052.61 1479.58 6052.61 1479.58Z" fill="#617EFC"/>
<path d="M6163.23 829.351L6088.92 1276.01C6088.92 1276.01 5815.82 3055.64 5700.11 3499.39" stroke="#343C62" stroke-width="0.4251" stroke-miterlimit="10"/>
<path d="M5847.05 3832.66C5847.05 3832.66 5701.96 3413.68 5940.28 3035.32C6047.37 3436.9 5847.05 3832.66 5847.05 3832.66Z" fill="#617EFC"/>
<path d="M5899.35 3737.87C5899.35 3737.87 6257.23 3490.45 6283.39 3039.77C5966.13 3296.43 5899.35 3737.87 5899.35 3737.87Z" fill="#617EFC"/>
<path d="M6023.36 3279.98C6023.36 3279.98 5878.26 2860.99 6116.6 2482.64C6223.85 2884.22 6023.36 3279.98 6023.36 3279.98Z" fill="#617EFC"/>
<path d="M6066.91 3195.04C6066.91 3195.04 6424.78 2947.62 6450.94 2496.94C6133.69 2753.76 6066.91 3195.04 6066.91 3195.04Z" fill="#617EFC"/>
<path d="M6234.78 2617.57C6234.78 2617.57 6089.68 2198.6 6328.02 1820.23C6435.27 2221.83 6234.78 2617.57 6234.78 2617.57Z" fill="#617EFC"/>
<path d="M6258.94 2568.04C6258.94 2568.04 6616.83 2320.62 6642.99 1869.95C6325.72 2126.59 6258.94 2568.04 6258.94 2568.04Z" fill="#617EFC"/>
<path d="M6412.95 2031.04C6412.95 2031.04 6710.51 1709.46 6641.74 1263.55C6385.72 1585.3 6412.95 2031.04 6412.95 2031.04Z" fill="#617EFC"/>
<path d="M6615.59 1360.64L6476.35 1834.85C6476.35 1834.85 5965.84 3557.69 5791.36 3980.37" stroke="#343C62" stroke-width="0.4251" stroke-miterlimit="10"/>
<path d="M5931.68 1468.66L5976.76 1984.57" stroke="#343C62" stroke-width="0.4251" stroke-miterlimit="10"/>
<path d="M6203.53 1443.27L5965.98 2051.34" stroke="#343C62" stroke-width="0.4251" stroke-miterlimit="10"/>
<path d="M6308.48 1969.49L6244.47 2602.34L6570.51 2031.03" stroke="#343C62" stroke-width="0.4251" stroke-miterlimit="10"/>
<path d="M5818.59 2154.44L5847.36 2754.67L6063.99 2173.83" stroke="#343C62" stroke-width="0.4251" stroke-miterlimit="10"/>
<path d="M5718.59 2719.58L5741.67 3317.21L5999.38 2702.66" stroke="#343C62" stroke-width="0.4251" stroke-miterlimit="10"/>
<path d="M6084.77 2670.97L6036.31 3252.12L6349.41 2702.66" stroke="#343C62" stroke-width="0.4251" stroke-miterlimit="10"/>
<path d="M5918.75 3197.96L5863.35 3788.34L6203.54 3214.89" stroke="#343C62" stroke-width="0.4251" stroke-miterlimit="10"/>
<path d="M5791.48 553.764H1227.04V3755.26H5791.48V553.764Z" fill="#DFE5FF" stroke="#BDCAFE" stroke-width="0.8503" stroke-miterlimit="10"/>
<path d="M5791.48 848.716H1227.04V3755.26H5791.48V848.716Z" fill="#C1CFFF"/>
<path d="M3591.14 653.478H1346.61V744.565H3591.14V653.478Z" fill="#0089FF"/>
<path d="M5672.11 653.478H5583.95V744.565H5672.11V653.478Z" fill="#8097FD"/>
<path d="M5529.48 653.478H5441.32V744.565H5529.48V653.478Z" fill="#8097FD"/>
<path d="M5386.85 653.478H5298.69V744.565H5386.85V653.478Z" fill="#8097FD"/>
<path d="M4161.95 2991.78H1619.56V3486.31H4161.95V2991.78Z" fill="#DFE5FF" stroke="#BDCAFE" stroke-width="0.8503" stroke-miterlimit="10"/>
<path d="M4140.89 1347.86H1698.03V2865.6H4140.89V1347.86Z" fill="white"/>
<path d="M4128.1 1360.64V2852.99H1710.78V1360.64H4128.1ZM4153.64 1335.09H4128.1H1710.78H1685.25V1360.64V2852.99V2878.52H1710.78H4128.1H4153.64V2852.99V1360.64V1335.09Z" fill="#8097FD"/>
<path d="M2922.28 2487.56C3145.85 2487.56 3327.09 2301.98 3327.09 2073.04C3327.09 1844.12 3145.85 1658.53 2922.28 1658.53C2698.71 1658.53 2517.48 1844.12 2517.48 2073.04C2517.48 2301.98 2698.71 2487.56 2922.28 2487.56Z" fill="white"/>
<path d="M2799.07 2073.04V1851.03L2986.78 1962.11L3174.63 2073.04L2986.78 2183.99L2799.07 2295.08V2073.04Z" fill="#0089FF"/>
<path d="M4128.1 2679.43H1710.78V2870.37H4128.1V2679.43Z" fill="#0089FF"/>
<path d="M4128.1 2742.22H1710.78V2811H4128.1V2742.22Z" fill="#E8EDFF"/>
<path d="M2892.28 2742.22H1710.78V2811H2892.28V2742.22Z" fill="#43538B"/>
<path d="M4082.27 3081.64H1699.25V3185.81H4082.27V3081.64Z" fill="#0089FF"/>
<path d="M5399.01 1360.64H4325.05V3486.3H5399.01V1360.64Z" fill="#DFE5FF" stroke="#BDCAFE" stroke-width="0.8503" stroke-miterlimit="10"/>
<path d="M5441.32 1117.69H1619.56V1230.47H5441.32V1117.69Z" fill="#0089FF"/>
<path d="M5304.22 1479.59H4420.13V1547.43H5304.22V1479.59Z" fill="#0089FF"/>
<path d="M5304.08 1631.91H4521.69V1688.06H5304.08V1631.91Z" fill="#A9BCFF"/>
<path d="M4474.44 1631.91H4420.13V1688.06H4474.44V1631.91Z" fill="#617EFC"/>
<path d="M5304.08 1756.39H4521.69V1812.54H5304.08V1756.39Z" fill="#A9BCFF"/>
<path d="M4474.44 1756.39H4420.13V1812.54H4474.44V1756.39Z" fill="#617EFC"/>
<path d="M5304.08 1880.85H4521.69V1937.02H5304.08V1880.85Z" fill="#A9BCFF"/>
<path d="M4474.44 1880.85H4420.13V1937.02H4474.44V1880.85Z" fill="#617EFC"/>
<path d="M5304.22 2051.34H4420.13V2119.2H5304.22V2051.34Z" fill="#0089FF"/>
<path d="M5304.08 2203.83H4521.69V2260H5304.08V2203.83Z" fill="#A9BCFF"/>
<path d="M4474.44 2203.83H4420.13V2260H4474.44V2203.83Z" fill="#617EFC"/>
<path d="M5304.08 2328.31H4521.69V2384.46H5304.08V2328.31Z" fill="#A9BCFF"/>
<path d="M4474.44 2328.31H4420.13V2384.46H4474.44V2328.31Z" fill="#617EFC"/>
<path d="M5304.08 2452.79H4521.69V2508.94H5304.08V2452.79Z" fill="#A9BCFF"/>
<path d="M4474.44 2452.79H4420.13V2508.94H4474.44V2452.79Z" fill="#617EFC"/>
<path d="M5304.22 2624.19H4420.13V2692.05H5304.22V2624.19Z" fill="#0089FF"/>
<path d="M5304.08 2776.51H4521.69V2832.68H5304.08V2776.51Z" fill="#A9BCFF"/>
<path d="M4474.44 2776.51H4420.13V2832.68H4474.44V2776.51Z" fill="#617EFC"/>
<path d="M5304.08 2901.01H4521.69V2957.16H5304.08V2901.01Z" fill="#A9BCFF"/>
<path d="M4474.44 2901.01H4420.13V2957.16H4474.44V2901.01Z" fill="#617EFC"/>
<path d="M5304.08 3025.63H4521.69V3081.8H5304.08V3025.63Z" fill="#A9BCFF"/>
<path d="M4474.44 3025.63H4420.13V3081.8H4474.44V3025.63Z" fill="#617EFC"/>
<path d="M2041.58 1481.89C1998.35 1472.18 1952.19 1474.5 1910.49 1488.8C1865.1 1504.35 1815.4 1536.96 1837.86 1603.29C1876.34 1716.99 1732.77 1739.61 1732.77 1924.24C1732.77 2108.9 2115.27 2113.65 2229.45 1983.8C2343.61 1853.93 2161.74 1766.99 2156.52 1659.91C2152.21 1570.97 2134.66 1502.66 2041.58 1481.89Z" fill="#252A40"/>
<path d="M1592.31 1985.34V2094.9L1805.56 2008.42L1779.86 1881.63L1592.31 1985.34Z" fill="#EABBAB"/>
<path d="M1926.95 1800.39L1779.86 1881.63L1805.56 2008.41L1899.87 1970.26L1926.95 1800.39Z" fill="#0089FF"/>
<path d="M683.443 4151.32H644.517L734.988 3009.32H773.913L683.443 4151.32Z" fill="#343C62"/>
<path d="M1508.77 4151.32H1470L1560.31 3009.32H1599.24L1508.77 4151.32Z" fill="#343C62"/>
<path d="M1940.65 4151.32H1901.88L1811.4 3009.32H1850.33L1940.65 4151.32Z" fill="#343C62"/>
<path d="M995.028 3009.31H1850.33L1729.87 1502.81H874.547L995.028 3009.31Z" fill="#BDCAFE"/>
<path d="M1622.78 3042.85H702.532L855.462 1502.81H1710.78L1622.78 3042.85Z" fill="#E8EDFF"/>
<path d="M1579.85 1699.61H948.699L953.323 1651.14H1584.31L1579.85 1699.61Z" fill="#0089FF"/>
<path d="M1570.45 1799.92H1011.95L1015.64 1759.91H1574.14L1570.45 1799.92Z" fill="#BECCFD"/>
<path d="M978.078 1799.92H939.459L943.164 1759.91H981.93L978.078 1799.92Z" fill="#BECCFD"/>
<path d="M1562.16 1888.86H1003.8L1007.49 1848.7H1566.01L1562.16 1888.86Z" fill="#BECCFD"/>
<path d="M969.962 1888.86H931.183L934.874 1848.7H973.653L969.962 1888.86Z" fill="#BECCFD"/>
<path d="M1551.24 1993.65H920.251L924.715 1945.18H1555.7L1551.24 1993.65Z" fill="#0089FF"/>
<path d="M1541.86 2093.97H983.498L987.189 2053.97H1545.7L1541.86 2093.97Z" fill="#BECCFD"/>
<path d="M949.634 2093.97H910.855L914.547 2053.97H953.326L949.634 2093.97Z" fill="#BECCFD"/>
<path d="M1533.69 2182.9H975.169L978.861 2142.75H1537.38L1533.69 2182.9Z" fill="#BECCFD"/>
<path d="M941.331 2182.9H902.552L906.403 2142.75H945.022L941.331 2182.9Z" fill="#BECCFD"/>
<path d="M1525.37 2271.68H966.866L970.558 2231.68H1529.07L1525.37 2271.68Z" fill="#BECCFD"/>
<path d="M933.025 2271.68H894.406L898.097 2231.68H936.863L933.025 2271.68Z" fill="#BECCFD"/>
<path d="M2011.58 1783.93C1902.8 1781.61 1807.71 1866.56 1801.55 1979.03C1801.24 1984.26 1801.1 1989.8 1801.1 1995.34C1801.1 2150.74 1850.32 2348.47 1850.32 2348.47L2102.05 2351.08L2159.29 1929.32C2165.29 1856.55 2112.66 1791.77 2042.35 1785.77C2032.5 1784.69 2022.19 1784.08 2011.58 1783.93Z" fill="#0089FF"/>
<path d="M1940.35 1783.77C1940.35 1783.77 1902.66 1791.31 1902.66 1832.85C1902.66 1878.24 1961.58 1848.69 1961.58 1848.69C1961.58 1848.69 1974.51 1888.7 2016.82 1868.7C2059.29 1848.69 2086.51 1779.92 2038.82 1773C1990.97 1766.07 1943.43 1783.77 1943.43 1783.77" fill="#0089FF"/>
<path d="M1975.73 1838.24C2010.51 1838.24 2038.67 1809.02 2038.67 1773.16V1689H1940.19V1801.62C1940.35 1821.78 1956.19 1838.24 1975.73 1838.24Z" fill="#EABBAB"/>
<path d="M1994.19 1752.7H1958.65C1918.49 1752.7 1885.56 1719.77 1885.56 1679.6V1584.05C1885.56 1543.9 1918.49 1510.97 1958.65 1510.97H1994.19C2034.34 1510.97 2067.27 1543.9 2067.27 1584.05V1679.6C2067.27 1719.77 2034.34 1752.7 1994.19 1752.7Z" fill="#EABBAB"/>
<path d="M2093.59 1640.52C2093.59 1656.53 2081.89 1669.44 2067.27 1669.44C2052.65 1669.44 2040.97 1656.53 2040.97 1640.52C2040.97 1624.52 2052.65 1611.59 2067.27 1611.59C2081.89 1611.59 2093.59 1624.52 2093.59 1640.52Z" fill="#EABBAB"/>
<path d="M1812.8 2466.16C1812.8 2466.16 1806.03 2794.82 1806.03 3338.74C1806.03 3882.66 1824.03 4103 1824.03 4103C1824.03 4103 1703.26 4110.08 1703.26 4151.31C1851.27 4151.31 1874.19 4151.31 1874.19 4151.31L2017.29 2466.16H1812.8Z" fill="#EABBAB"/>
<path d="M1902.34 2466.16C1983.58 3145.33 2045.89 3647.25 2160.83 4103C2160.83 4103 2040.05 4110.08 2040.05 4151.31C2188.07 4151.31 2210.99 4151.31 2210.99 4151.31L2125.9 2466.16H1902.34Z" fill="#EABBAB"/>
<path d="M2102.07 2350.92L1850.34 2348.31C1850.34 2348.31 1703.25 2596.65 1801.12 3255.51C2194.69 3255.51 2165.92 3258.43 2165.92 3258.43C2165.92 3258.43 2292.4 2697.13 2102.07 2350.92Z" fill="#252A40"/>
<path d="M1837.56 1573.14C1837.56 1573.14 1878.18 1651.46 2028.2 1554.06C2178.21 1456.65 1823.87 1482.04 1837.56 1573.14Z" fill="#252A40"/>
<path d="M1936.79 1627.13C1936.79 1627.13 1904.49 1690.07 1936.79 1684.99V1627.13Z" fill="#DDA090"/>
<path d="M1932.51 1699.61H1990.66C1990.66 1699.61 1986.97 1716.85 1961.59 1716.85C1936.2 1716.85 1932.51 1699.61 1932.51 1699.61Z" fill="white"/>
<path d="M2065.45 1625.6C2065.45 1625.6 2055.9 1625.75 2055.9 1642.52C2066.21 1642.52 2066.21 1655.45 2066.21 1655.45C2066.21 1655.45 2078.83 1653.45 2078.83 1639.28C2078.83 1624.99 2065.45 1625.6 2065.45 1625.6Z" fill="#DDA090"/>
<path d="M1798.02 4105.62V4131.31H1876.17V4151.31H1703.23C1703.23 4151.31 1699.39 4105.62 1798.02 4105.62Z" fill="#0089FF"/>
<path d="M2132.98 4105.62V4131.31H2210.07L2211.15 4151.31H2038.2C2038.2 4151.31 2034.35 4105.62 2132.98 4105.62Z" fill="#0089FF"/>
<path d="M2119.13 1825.48C2067.13 1794.71 2030.66 1890.87 2006.66 2000.43L2152.53 2038.74C2167.13 1939.34 2160.83 1850.09 2119.13 1825.48Z" fill="#0089FF"/>
<path d="M2006.67 2000.43C1980.06 2121.67 1968.82 2259.37 1968.82 2259.37C1968.82 2259.37 1710.79 2180.44 1619.56 2162.9L1604.94 2153.22C1589.71 2143.06 1573.55 2134.29 1556.48 2127.67C1544.32 2123.06 1532.48 2119.82 1529.09 2123.36C1523.39 2129.36 1538.92 2136.9 1547.24 2140.44C1545.55 2140.6 1544 2140.76 1542.47 2140.9C1522.31 2138.13 1470 2129.52 1464.62 2139.52C1456.16 2154.91 1506.62 2205.52 1605.55 2201.22C1605.55 2201.22 1862.35 2336.47 1978.2 2368.78C2049.91 2388.79 2128.84 2200.44 2152.54 2038.74L2006.67 2000.43Z" fill="#EABBAB"/>
<path d="M4455.52 707.781L3730.53 547.144V216.021H4455.52V707.781Z" fill="#343C62"/>
<path d="M5180.53 547.144L4455.53 707.781V216.021H5180.53V547.144Z" fill="#252A40"/>
<path d="M3509.28 216.022L4455.52 0L5401.77 216.022L4455.52 432.057L3509.28 216.022Z" fill="#43538B"/>
<path d="M4455.52 212.026L3977.62 322.969L3948.54 745.485" stroke="#8097FD" stroke-width="0.8503" stroke-miterlimit="10"/>
<path d="M3969.32 767.793C3975.01 762.103 3978.55 754.253 3978.55 745.485C3978.55 728.4 3965.16 714.554 3948.54 714.554C3932.09 714.554 3918.55 728.4 3918.55 745.485C3918.55 754.253 3922.08 762.103 3927.78 767.793L3895.16 861.345H3948.54H4001.94L3969.32 767.793Z" fill="#617EFC"/>
<path d="M5927.98 4145.93H5139.58C5097.43 4145.93 5063.43 4111.77 5063.43 4069.77V2493.25C5063.43 2451.1 5097.58 2417.09 5139.58 2417.09H5927.98C5970.13 2417.09 6004.14 2451.24 6004.14 2493.25V4069.61C6004.14 4111.77 5970.13 4145.93 5927.98 4145.93Z" fill="#343C62"/>
<path d="M5929.81 2588.5H5137.58V3974.37H5929.81V2588.5Z" fill="#0089FF"/>
<path d="M5354.24 3162.57H5434.7C5446.4 3094.87 5503.49 3043.48 5572.26 3043.48C5641.04 3043.48 5698.11 3094.87 5709.81 3162.57H5713.51C5763.97 3162.57 5805.36 3205.35 5805.36 3257.51C5805.36 3309.83 5763.97 3352.44 5713.51 3352.44H5354.24C5303.77 3352.44 5262.38 3309.67 5262.38 3257.51C5262.22 3205.35 5303.61 3162.57 5354.24 3162.57Z" fill="white"/>
</g>
<defs>
<clipPath id="clip0_2_7564">
<rect width="6941" height="4267" fill="white"/>
</clipPath>
</defs>
</svg>
