<svg width="6805" height="4536" viewBox="0 0 6805 4536" fill="none" xmlns="http://www.w3.org/2000/svg">
<g clip-path="url(#clip0_1_2037)">
<g opacity="0.8">
<path d="M5651.71 3646.71H5695.35V2422.52C5700.77 2410.96 5705.31 2398.22 5708.83 2386.36L5739.29 2298.93C5739.29 2298.93 5752.18 2287.37 5770.19 2275.8C5783.08 2267.45 5801.68 2248.85 5807.1 2238.16C5810.18 2232.01 5821.45 2205.66 5823.06 2200.97C5824.67 2196.28 5760.97 2218.54 5747.05 2217.08C5733.14 2215.47 5737.97 2209.02 5745.88 2198.33C5762.58 2175.93 5709.85 2207.71 5708.39 2212.39C5706.78 2217.08 5705.31 2275.8 5705.31 2275.8L5695.5 2292.78V321.053V313.731V100.67H1204.59V313.585V320.906V2937.24C1157.14 2931.24 1119.36 2944.71 1089.92 2971.36C959.868 2892.72 827.033 2844.11 745.457 2890.09C653.484 2825.22 543.642 2790.95 432.19 2790.95C390.157 2900.92 384.006 3022.76 417.544 3137.27C411.539 3135.22 405.535 3133.02 399.384 3131.26C376.683 3080.74 336.701 3014.26 269.478 2926.55C265.377 2921.28 261.569 2916.01 257.761 2910.88C263.62 2909.12 285.149 2901.95 296.426 2884.08C301.259 2876.47 301.991 2858.9 292.764 2853.04C283.538 2847.33 270.064 2852.16 263.18 2863.14C252.782 2879.69 254.393 2900.19 255.418 2907.95C234.036 2878.52 217.486 2852.45 204.452 2829.02C213.825 2824.49 234.329 2812.92 247.217 2792.27C253.514 2782.46 256.736 2760.64 247.656 2754.93C238.429 2749.22 223.198 2757.13 214.118 2771.48C203.133 2788.9 200.351 2808.23 199.619 2820.09C188.635 2799.45 180.287 2781.14 173.696 2764.89C182.044 2760.79 203.134 2748.63 216.754 2727.11C222.905 2717.3 226.713 2695.77 218.072 2690.35C209.431 2684.93 194.493 2692.99 185.412 2707.34C174.282 2724.91 171.206 2744.24 170.328 2755.95C164.616 2741.16 160.369 2727.99 156.561 2716.56C154.657 2710.56 152.753 2704.99 150.995 2699.87C153.778 2687.86 158.172 2660.04 147.627 2633.68C142.501 2621.09 123.315 2603.81 110.281 2609.08C97.2463 2614.35 93.1456 2634.56 100.468 2652.72C111.599 2680.39 135.911 2697.67 145.284 2703.53C146.895 2708.22 148.506 2713.2 150.263 2718.47C154.217 2730.33 158.611 2743.95 164.469 2759.47C157.879 2750.1 143.087 2732.23 121.119 2724.18C110.134 2720.22 87.7267 2722.86 83.4795 2734.72C79.2323 2746.44 89.7771 2761.08 105.741 2766.79C132.396 2776.45 160.661 2767.96 166.959 2765.76C173.696 2782.46 182.19 2801.5 193.614 2822.73C182.776 2816.87 164.176 2809.11 143.819 2810.57C132.103 2811.45 112.771 2823.02 113.796 2835.47C114.675 2847.91 130.199 2856.99 147.188 2855.68C171.206 2853.92 190.831 2839.86 199.179 2832.83C212.067 2855.82 228.324 2881.59 249.267 2910.44C242.677 2905.46 226.42 2894.77 206.502 2893.31C197.129 2892.58 180.14 2898.58 179.554 2907.51C178.822 2916.45 190.392 2924.65 204.159 2925.67C227.299 2927.43 247.363 2916.15 251.61 2913.66C255.564 2919.08 259.812 2924.65 264.059 2930.36C322.934 3007.23 365.553 3073.86 390.889 3128.77C256.297 3090.41 114.821 3112.96 0 3183.69C28.9982 3337.15 129.759 3473.63 282.219 3540.99C426.624 3604.68 585.382 3592.38 714.848 3521.36C855.153 3555.78 1025.63 3576.72 1204.45 3584.62V3646.56H2602.51" fill="#C3D1FF"/>
</g>
<path d="M271.968 2802.52C271.968 2802.52 284.27 2764.89 270.21 2730.33C265.084 2717.73 245.899 2700.46 232.864 2705.73C219.829 2711 215.729 2731.21 223.052 2749.36C236.965 2783.92 271.968 2802.52 271.968 2802.52Z" fill="#008AFF"/>
<path d="M291.007 2861.82C291.007 2861.82 274.164 2831.66 243.848 2820.68C232.864 2816.72 210.456 2819.36 206.209 2831.22C201.962 2842.94 212.507 2857.58 228.47 2863.29C258.64 2874.27 291.007 2861.82 291.007 2861.82Z" fill="#008AFF"/>
<path d="M326.303 2925.52C326.303 2925.52 298.623 2904.88 266.402 2907.22C254.686 2908.1 235.354 2919.67 236.379 2932.11C237.258 2944.56 252.782 2953.64 269.771 2952.32C301.845 2950.12 326.303 2925.52 326.303 2925.52Z" fill="#008AFF"/>
<path d="M292.472 2863.14C292.472 2863.14 322.056 2850.84 339.191 2823.61C345.342 2813.8 349.15 2792.27 340.509 2786.85C331.868 2781.43 316.93 2789.49 307.85 2803.84C290.714 2831.22 292.472 2863.14 292.472 2863.14Z" fill="#008AFF"/>
<path d="M322.202 2927.72C322.202 2927.72 352.664 2916.01 369.8 2888.77C376.097 2878.96 379.319 2857.14 370.239 2851.43C361.012 2845.72 345.781 2853.63 336.701 2867.98C319.565 2895.21 322.202 2927.72 322.202 2927.72Z" fill="#008AFF"/>
<path d="M378.586 3007.82C378.586 3007.82 405.827 3001.38 418.861 2980.58C423.694 2972.97 424.426 2955.4 415.2 2949.54C405.973 2943.83 392.499 2948.66 385.616 2959.64C372.581 2980.44 378.586 3007.82 378.586 3007.82Z" fill="#008AFF"/>
<path d="M375.072 3009.72C375.072 3009.72 355.154 2991.86 329.085 2989.95C319.712 2989.22 302.723 2995.23 302.137 3004.16C301.405 3013.09 312.975 3021.29 326.742 3022.32C352.811 3024.22 375.072 3009.72 375.072 3009.72Z" fill="#008AFF"/>
<path d="M530.608 3372.88C524.603 3378.59 519.331 3380.35 518.891 3380.49L516.841 3374.2L517.866 3377.27L516.841 3374.2C517.427 3374.05 531.34 3369.07 537.931 3347.84C545.107 3323.97 540.128 3290.14 523.139 3247.39C499.706 3188.67 453.865 3114.42 386.789 3027C308.875 2925.38 287.346 2859.04 272.993 2815.11C269.332 2803.84 266.11 2794.17 262.741 2786.27L268.746 2783.63C272.261 2791.83 275.483 2801.64 279.291 2813.06C293.497 2856.55 314.879 2922.16 392.061 3022.9C541.299 3217.66 557.116 3308.3 544.228 3350.04C540.567 3361.02 535.441 3368.19 530.608 3372.88Z" fill="#008AFF"/>
<path d="M2400.84 3425.6C2551.11 3344.32 2436.72 3308.89 2298.91 3304.06C2367.89 3243.72 2328.79 3181.64 2166.66 3107.4C2093.87 3074.01 2003.36 3087.63 1913.73 3123.5C1849.88 2996.98 1760.98 2908.68 1653.19 2950.42C1564.14 2984.83 1497.36 3028.17 1455.03 3075.47C1428.23 3064.2 1399.24 3053.36 1368.19 3043.11C1300.67 3021 1249.56 3033.89 1212.07 3067.86C1080.99 2988.64 947.127 2939.73 865.698 2987.61C724.076 3070.79 703.133 3145.32 790.86 3223.52C653.192 3222.2 548.183 3259.98 724.076 3368.19C561.364 3344.91 444.2 3356.19 510.544 3451.51C658.757 3663.84 1390.01 3728.42 1940.24 3656.67C2286.02 3653.45 2575.56 3605.56 2634.59 3503.21C2678.52 3427.79 2558.28 3413.44 2400.84 3425.6Z" fill="#8CB4FA"/>
<path d="M576.888 3248.12C729.348 3315.48 829.963 3451.95 859.108 3605.42C725.98 3687.27 557.263 3704.85 404.803 3637.49C252.343 3570.13 151.729 3433.65 122.584 3280.19C255.712 3198.18 424.428 3180.76 576.888 3248.12Z" fill="#008AFF"/>
<path d="M181.605 3303.47L832.014 3590.77" stroke="white" stroke-width="1.6856" stroke-miterlimit="10"/>
<path d="M315.466 3363.51L206.356 3415.05" stroke="white" stroke-width="1.6856" stroke-miterlimit="10"/>
<path d="M426.333 3412.42L291.887 3475.97" stroke="white" stroke-width="1.6856" stroke-miterlimit="10"/>
<path d="M537.199 3461.47L312.391 3567.64" stroke="white" stroke-width="1.6856" stroke-miterlimit="10"/>
<path d="M648.212 3510.38L429.407 3613.76" stroke="white" stroke-width="1.6856" stroke-miterlimit="10"/>
<path d="M759.078 3559.44L637.228 3616.99" stroke="white" stroke-width="1.6856" stroke-miterlimit="10"/>
<path d="M303.018 3355.6L267.576 3240.21" stroke="white" stroke-width="1.6856" stroke-miterlimit="10"/>
<path d="M413.883 3404.66L358.67 3224.84" stroke="white" stroke-width="1.6856" stroke-miterlimit="10"/>
<path d="M524.751 3453.56L455.624 3228.5" stroke="white" stroke-width="1.6856" stroke-miterlimit="10"/>
<path d="M635.618 3502.62L564.733 3271.4" stroke="white" stroke-width="1.6856" stroke-miterlimit="10"/>
<path d="M746.63 3551.53L685.559 3352.96" stroke="white" stroke-width="1.6856" stroke-miterlimit="10"/>
<path d="M1000.29 3120.43C1104.57 3272.13 1120.09 3458.84 1058.43 3620.06C885.762 3619.91 716.899 3538.64 612.623 3386.94C508.347 3235.23 492.822 3048.53 554.48 2887.31C727.151 2887.45 896.014 2968.72 1000.29 3120.43Z" fill="#008AFF"/>
<path d="M596.513 2943.54L1041.74 3590.77" stroke="white" stroke-width="1.8623" stroke-miterlimit="10"/>
<path d="M687.609 3077.52L555.066 3062.73" stroke="white" stroke-width="1.8623" stroke-miterlimit="10"/>
<path d="M763.473 3187.93L600.175 3169.63" stroke="white" stroke-width="1.8623" stroke-miterlimit="10"/>
<path d="M839.483 3298.2L566.344 3267.74" stroke="white" stroke-width="1.8623" stroke-miterlimit="10"/>
<path d="M915.347 3408.61L649.677 3379.03" stroke="white" stroke-width="1.8623" stroke-miterlimit="10"/>
<path d="M991.211 3519.02L843.291 3502.47" stroke="white" stroke-width="1.8623" stroke-miterlimit="10"/>
<path d="M680.433 3062.88L713.971 2933.87" stroke="white" stroke-width="1.8623" stroke-miterlimit="10"/>
<path d="M756.296 3173.29L808.727 2972.09" stroke="white" stroke-width="1.8623" stroke-miterlimit="10"/>
<path d="M832.159 3283.7L897.771 3031.83" stroke="white" stroke-width="1.8623" stroke-miterlimit="10"/>
<path d="M908.023 3393.97L975.393 3135.36" stroke="white" stroke-width="1.8623" stroke-miterlimit="10"/>
<path d="M984.034 3504.38L1041.88 3282.24" stroke="white" stroke-width="1.8623" stroke-miterlimit="10"/>
<path d="M5817.79 409.938H1327.03V3743.06H5817.79V409.938Z" fill="#EBF5FF"/>
<path d="M5817.79 197.024H1327.03V417.406H5817.79V197.024Z" fill="#0087FF"/>
<path d="M1488.57 297.038C1488.57 321.346 1468.8 341.114 1444.49 341.114C1420.03 341.114 1400.41 321.346 1400.41 297.038C1400.41 272.73 1420.03 252.961 1444.49 252.961C1468.8 252.961 1488.57 272.73 1488.57 297.038Z" fill="#2F50D9"/>
<path d="M1628.14 297.038C1628.14 321.346 1608.37 341.114 1584.06 341.114C1559.75 341.114 1539.98 321.346 1539.98 297.038C1539.98 272.73 1559.75 252.961 1584.06 252.961C1608.37 252.961 1628.14 272.73 1628.14 297.038Z" fill="#80C5FB"/>
<path d="M1767.72 297.038C1767.72 321.346 1747.95 341.114 1723.63 341.114C1699.32 341.114 1679.55 321.346 1679.55 297.038C1679.55 272.73 1699.32 252.961 1723.63 252.961C1747.95 252.961 1767.72 272.73 1767.72 297.038Z" fill="#EBF5FF"/>
<path d="M5549.63 637.643H1592.56V3526.93H5549.63V637.643Z" fill="white"/>
<path d="M3119.5 948.522H1962.79V996.113H3119.5V948.522Z" fill="#C9E1FC"/>
<path d="M2337.43 847.19H1962.79V894.781H2337.43V847.19Z" fill="#C9E1FC"/>
<path d="M5271.37 948.522H4114.66V996.113H5271.37V948.522Z" fill="#C9E1FC"/>
<path d="M4489.3 847.189H4114.66V894.78H4489.3V847.189Z" fill="#C9E1FC"/>
<path d="M3813.99 1095.54H2007.9V3142.83H3813.99V1095.54Z" stroke="#C9E1FC" stroke-width="0.4085" stroke-miterlimit="10"/>
<path d="M2007.9 2850.26H3813.99" stroke="#C9E1FC" stroke-width="0.4087" stroke-miterlimit="10"/>
<path d="M2007.9 2557.83H3813.99" stroke="#C9E1FC" stroke-width="0.4087" stroke-miterlimit="10"/>
<path d="M2007.9 2265.4H3813.99" stroke="#C9E1FC" stroke-width="0.4087" stroke-miterlimit="10"/>
<path d="M2007.9 1972.83H3813.99" stroke="#C9E1FC" stroke-width="0.4087" stroke-miterlimit="10"/>
<path d="M2007.9 1680.4H3813.99" stroke="#C9E1FC" stroke-width="0.4087" stroke-miterlimit="10"/>
<path d="M2007.9 1387.97H3813.99" stroke="#C9E1FC" stroke-width="0.4087" stroke-miterlimit="10"/>
<path d="M3212.06 1095.54V3142.69" stroke="#C9E1FC" stroke-width="0.4087" stroke-miterlimit="10"/>
<path d="M2609.98 1095.54V3142.69" stroke="#C9E1FC" stroke-width="0.4087" stroke-miterlimit="10"/>
<path d="M2007.9 1095.54L1914.46 1188.97" stroke="#C9E1FC" stroke-width="0.4087" stroke-miterlimit="10"/>
<path d="M2007.9 1387.97L1914.46 1481.39" stroke="#C9E1FC" stroke-width="0.4087" stroke-miterlimit="10"/>
<path d="M2007.9 1680.4L1914.46 1773.82" stroke="#C9E1FC" stroke-width="0.4087" stroke-miterlimit="10"/>
<path d="M2007.9 1972.83L1914.46 2066.25" stroke="#C9E1FC" stroke-width="0.4087" stroke-miterlimit="10"/>
<path d="M2007.9 2265.4L1914.46 2358.68" stroke="#C9E1FC" stroke-width="0.4087" stroke-miterlimit="10"/>
<path d="M2007.9 2557.83L1914.46 2651.25" stroke="#C9E1FC" stroke-width="0.4087" stroke-miterlimit="10"/>
<path d="M2007.9 2850.26L1914.46 2943.68" stroke="#C9E1FC" stroke-width="0.4087" stroke-miterlimit="10"/>
<path d="M1831.57 2951.74H1831.42L1822.2 2956.71L1820.88 2951.3L1832.45 2945.15H1838.6V2998.3H1831.72V2951.74H1831.57Z" fill="#C9E1FC"/>
<path d="M1893.08 2971.07C1893.08 2989.08 1886.34 2999.03 1874.63 2999.03C1864.23 2999.03 1857.2 2989.37 1857.05 2971.8C1857.05 2953.93 1864.67 2944.12 1875.51 2944.12C1886.78 2944.27 1893.08 2954.23 1893.08 2971.07ZM1864.23 2971.94C1864.23 2985.71 1868.48 2993.62 1875.07 2993.62C1882.39 2993.62 1885.91 2984.98 1885.91 2971.5C1885.91 2958.47 1882.54 2949.83 1875.07 2949.83C1868.92 2949.69 1864.23 2957.45 1864.23 2971.94Z" fill="#C9E1FC"/>
<path d="M1815.9 2707.78V2703.38L1821.46 2697.97C1835.09 2685.08 1841.09 2678.2 1841.24 2670.14C1841.24 2664.73 1838.6 2659.75 1830.69 2659.75C1825.86 2659.75 1821.9 2662.24 1819.41 2664.29L1817.07 2659.16C1820.73 2656.09 1826 2653.74 1832.16 2653.74C1843.58 2653.74 1848.41 2661.65 1848.41 2669.12C1848.41 2678.93 1841.24 2686.84 1830.11 2697.67L1825.86 2701.63V2701.77H1849.73V2707.78H1815.9Z" fill="#C9E1FC"/>
<path d="M1893.08 2680.69C1893.08 2698.7 1886.34 2708.66 1874.63 2708.66C1864.23 2708.66 1857.2 2698.99 1857.05 2681.42C1857.05 2663.55 1864.67 2653.74 1875.51 2653.74C1886.78 2653.89 1893.08 2663.85 1893.08 2680.69ZM1864.23 2681.57C1864.23 2695.33 1868.48 2703.24 1875.07 2703.24C1882.39 2703.24 1885.9 2694.6 1885.9 2681.13C1885.9 2668.09 1882.54 2659.45 1875.07 2659.45C1868.92 2659.31 1864.23 2667.07 1864.23 2681.57Z" fill="#C9E1FC"/>
<path d="M1817.66 2409.2C1819.71 2410.52 1824.39 2412.57 1829.37 2412.57C1838.6 2412.57 1841.53 2406.71 1841.38 2402.32C1841.24 2394.85 1834.65 2391.63 1827.62 2391.63H1823.66V2386.21H1827.62C1832.89 2386.21 1839.48 2383.57 1839.48 2377.28C1839.48 2373.03 1836.84 2369.22 1830.11 2369.22C1825.86 2369.22 1821.76 2371.13 1819.41 2372.74L1817.51 2367.47C1820.29 2365.42 1825.71 2363.37 1831.42 2363.37C1841.82 2363.37 1846.66 2369.52 1846.66 2375.96C1846.66 2381.38 1843.43 2386.06 1836.84 2388.41V2388.55C1843.43 2389.87 1848.71 2394.7 1848.71 2402.17C1848.71 2410.66 1842.11 2418.13 1829.37 2418.13C1823.37 2418.13 1818.24 2416.23 1815.61 2414.47L1817.66 2409.2Z" fill="#C9E1FC"/>
<path d="M1893.08 2390.31C1893.08 2408.32 1886.34 2418.28 1874.63 2418.28C1864.23 2418.28 1857.2 2408.61 1857.05 2391.04C1857.05 2373.18 1864.67 2363.37 1875.51 2363.37C1886.78 2363.37 1893.08 2373.47 1893.08 2390.31ZM1864.23 2391.19C1864.23 2404.95 1868.48 2412.86 1875.07 2412.86C1882.39 2412.86 1885.9 2404.22 1885.9 2390.75C1885.9 2377.72 1882.54 2369.08 1875.07 2369.08C1868.92 2368.93 1864.23 2376.69 1864.23 2391.19Z" fill="#C9E1FC"/>
<path d="M1838.16 2127.02V2112.52H1813.41V2107.84L1837.13 2073.87H1844.9V2106.81H1852.37V2112.38H1844.9V2126.87H1838.16V2127.02ZM1838.16 2106.96V2089.24C1838.16 2086.46 1838.31 2083.68 1838.45 2080.89H1838.16C1836.55 2083.97 1835.23 2086.31 1833.77 2088.8L1820.73 2106.81V2106.96H1838.16V2106.96Z" fill="#C9E1FC"/>
<path d="M1893.08 2099.93C1893.08 2117.94 1886.34 2127.9 1874.63 2127.9C1864.23 2127.9 1857.2 2118.23 1857.05 2100.66C1857.05 2082.8 1864.67 2072.99 1875.51 2072.99C1886.78 2072.99 1893.08 2083.09 1893.08 2099.93ZM1864.23 2100.81C1864.23 2114.57 1868.48 2122.48 1875.07 2122.48C1882.39 2122.48 1885.91 2113.84 1885.91 2100.37C1885.91 2087.34 1882.54 2078.7 1875.07 2078.7C1868.92 2078.55 1864.23 2086.31 1864.23 2100.81Z" fill="#C9E1FC"/>
<path d="M1847.68 1789.64H1827.47L1825.42 1803.26C1826.59 1803.11 1827.76 1802.96 1829.81 1802.96C1833.91 1802.96 1838.01 1803.84 1841.24 1805.89C1845.34 1808.23 1848.85 1812.77 1848.85 1819.51C1848.85 1829.91 1840.65 1837.67 1829.08 1837.67C1823.22 1837.67 1818.39 1836.06 1815.9 1834.45L1817.66 1829.03C1819.85 1830.35 1824.25 1831.96 1829.08 1831.96C1835.82 1831.96 1841.68 1827.56 1841.68 1820.39C1841.53 1813.51 1836.99 1808.67 1826.44 1808.67C1823.37 1808.67 1821.03 1808.97 1819.12 1809.26L1822.49 1783.78H1847.97V1789.64H1847.68Z" fill="#C9E1FC"/>
<path d="M1893.08 1809.55C1893.08 1827.56 1886.34 1837.52 1874.63 1837.52C1864.23 1837.52 1857.2 1827.86 1857.05 1810.28C1857.05 1792.42 1864.67 1782.61 1875.51 1782.61C1886.78 1782.61 1893.08 1792.71 1893.08 1809.55ZM1864.23 1810.43C1864.23 1824.2 1868.48 1832.1 1875.07 1832.1C1882.39 1832.1 1885.9 1823.46 1885.9 1809.99C1885.9 1796.96 1882.54 1788.32 1875.07 1788.32C1868.92 1788.17 1864.23 1795.93 1864.23 1810.43Z" fill="#C9E1FC"/>
<path d="M1846.22 1498.23C1844.75 1498.09 1842.85 1498.23 1840.8 1498.53C1829.52 1500.43 1823.52 1508.63 1822.34 1517.42H1822.64C1825.13 1514.05 1829.52 1511.27 1835.53 1511.27C1844.9 1511.27 1851.49 1518 1851.49 1528.4C1851.49 1538.06 1844.9 1547.14 1833.77 1547.14C1822.34 1547.14 1815.02 1538.36 1815.02 1524.45C1815.02 1514.05 1818.83 1505.7 1823.96 1500.58C1828.35 1496.18 1834.21 1493.55 1840.94 1492.67C1843.14 1492.38 1844.9 1492.23 1846.22 1492.23V1498.23V1498.23ZM1844.17 1528.84C1844.17 1521.22 1839.77 1516.68 1833.18 1516.68C1828.79 1516.68 1824.83 1519.32 1822.93 1523.27C1822.49 1524.15 1822.05 1525.18 1822.05 1526.5C1822.2 1535.28 1826.15 1541.73 1833.77 1541.73C1840.07 1541.58 1844.17 1536.45 1844.17 1528.84Z" fill="#C9E1FC"/>
<path d="M1893.08 1519.17C1893.08 1537.19 1886.34 1547.14 1874.63 1547.14C1864.23 1547.14 1857.2 1537.48 1857.05 1519.91C1857.05 1502.04 1864.67 1492.23 1875.51 1492.23C1886.78 1492.23 1893.08 1502.19 1893.08 1519.17ZM1864.23 1519.91C1864.23 1533.67 1868.48 1541.58 1875.07 1541.58C1882.39 1541.58 1885.91 1532.94 1885.91 1519.47C1885.91 1506.43 1882.54 1497.8 1875.07 1497.8C1868.92 1497.8 1864.23 1505.56 1864.23 1519.91Z" fill="#C9E1FC"/>
<path d="M1850.46 1202.73V1207.42L1827.32 1255.74H1819.85L1842.85 1208.73V1208.59H1816.93V1202.58H1850.46V1202.73Z" fill="#C9E1FC"/>
<path d="M1893.08 1228.8C1893.08 1246.81 1886.34 1256.76 1874.63 1256.76C1864.23 1256.76 1857.2 1247.1 1857.05 1229.53C1857.05 1211.66 1864.67 1201.85 1875.51 1201.85C1886.78 1201.85 1893.08 1211.81 1893.08 1228.8ZM1864.23 1229.53C1864.23 1243.29 1868.48 1251.2 1875.07 1251.2C1882.39 1251.2 1885.91 1242.56 1885.91 1229.09C1885.91 1216.06 1882.54 1207.42 1875.07 1207.42C1868.92 1207.42 1864.23 1215.18 1864.23 1229.53Z" fill="#C9E1FC"/>
<path d="M2198 3250.75V3246.36L2203.57 3240.94C2217.19 3228.06 2223.19 3221.17 2223.34 3213.12C2223.34 3207.7 2220.7 3202.72 2212.79 3202.72C2207.96 3202.72 2204.01 3205.21 2201.52 3207.26L2199.17 3202.14C2202.83 3199.06 2208.11 3196.72 2214.26 3196.72C2225.68 3196.72 2230.52 3204.63 2230.52 3212.1C2230.52 3221.91 2223.34 3229.81 2212.21 3240.65L2207.96 3244.6V3244.75H2231.83V3250.75H2198Z" fill="#C9E1FC"/>
<path d="M2275.18 3223.66C2275.18 3241.67 2268.45 3251.63 2256.73 3251.63C2246.33 3251.63 2239.3 3241.97 2239.16 3224.4C2239.16 3206.53 2246.77 3196.72 2257.61 3196.72C2268.89 3196.87 2275.18 3206.82 2275.18 3223.66ZM2246.33 3224.54C2246.33 3238.31 2250.58 3246.21 2257.17 3246.21C2264.49 3246.21 2268.01 3237.57 2268.01 3224.1C2268.01 3211.07 2264.64 3202.43 2257.17 3202.43C2251.02 3202.28 2246.33 3210.05 2246.33 3224.54Z" fill="#C9E1FC"/>
<path d="M2297.45 3204.33H2297.3L2288.07 3209.31L2286.75 3203.89L2298.32 3197.74H2304.47V3250.9H2297.59V3204.33H2297.45Z" fill="#C9E1FC"/>
<path d="M2358.22 3197.74V3202.43L2335.08 3250.75H2327.62L2350.61 3203.75V3203.6H2324.69V3197.6H2358.22V3197.74Z" fill="#C9E1FC"/>
<path d="M2812.23 3250.75V3246.36L2817.8 3240.94C2831.42 3228.06 2837.42 3221.17 2837.57 3213.12C2837.57 3207.7 2834.94 3202.72 2827.03 3202.72C2822.19 3202.72 2818.24 3205.21 2815.75 3207.26L2813.41 3202.14C2817.07 3199.06 2822.34 3196.72 2828.49 3196.72C2839.91 3196.72 2844.75 3204.63 2844.75 3212.1C2844.75 3221.91 2837.57 3229.81 2826.44 3240.65L2822.19 3244.6V3244.75H2846.07V3250.75H2812.23Z" fill="#C9E1FC"/>
<path d="M2889.42 3223.66C2889.42 3241.67 2882.68 3251.63 2870.96 3251.63C2860.56 3251.63 2853.53 3241.97 2853.39 3224.4C2853.39 3206.53 2861 3196.72 2871.84 3196.72C2883.12 3196.87 2889.42 3206.82 2889.42 3223.66ZM2860.56 3224.54C2860.56 3238.31 2864.81 3246.21 2871.4 3246.21C2878.72 3246.21 2882.24 3237.57 2882.24 3224.1C2882.24 3211.07 2878.87 3202.43 2871.4 3202.43C2865.1 3202.28 2860.56 3210.05 2860.56 3224.54Z" fill="#C9E1FC"/>
<path d="M2911.68 3204.33H2911.53L2902.3 3209.31L2900.99 3203.89L2912.56 3197.74H2918.71V3250.9H2911.82V3204.33H2911.68Z" fill="#C9E1FC"/>
<path d="M2937.31 3237.28C2937.31 3230.55 2941.26 3225.86 2947.85 3223.08L2947.71 3222.78C2941.85 3220 2939.36 3215.46 2939.36 3210.92C2939.36 3202.58 2946.53 3196.72 2955.76 3196.72C2966.01 3196.72 2971.14 3203.16 2971.14 3209.75C2971.14 3214.29 2968.94 3219.12 2962.35 3222.2V3222.49C2968.94 3225.13 2973.04 3229.81 2973.04 3236.26C2973.04 3245.48 2965.13 3251.63 2955.03 3251.63C2944.04 3251.63 2937.31 3245.04 2937.31 3237.28ZM2965.87 3236.99C2965.87 3230.55 2961.33 3227.47 2954.15 3225.42C2948 3227.18 2944.63 3231.28 2944.63 3236.4C2944.34 3241.82 2948.44 3246.51 2955.32 3246.51C2961.77 3246.51 2965.87 3242.41 2965.87 3236.99ZM2946.09 3210.48C2946.09 3215.76 2950.05 3218.68 2956.2 3220.3C2960.74 3218.68 2964.26 3215.46 2964.26 3210.63C2964.26 3206.38 2961.77 3201.99 2955.32 3201.99C2949.32 3201.99 2946.09 3205.8 2946.09 3210.48Z" fill="#C9E1FC"/>
<path d="M3426.32 3250.75V3246.36L3431.89 3240.94C3445.51 3228.06 3451.51 3221.17 3451.66 3213.12C3451.66 3207.7 3449.02 3202.72 3441.11 3202.72C3436.28 3202.72 3432.33 3205.21 3429.84 3207.26L3427.49 3202.14C3431.15 3199.06 3436.43 3196.72 3442.58 3196.72C3454 3196.72 3458.83 3204.63 3458.83 3212.1C3458.83 3221.91 3451.66 3229.81 3440.53 3240.65L3436.43 3244.6V3244.75H3460.3V3250.75H3426.32Z" fill="#C9E1FC"/>
<path d="M3503.65 3223.66C3503.65 3241.67 3496.91 3251.63 3485.2 3251.63C3474.8 3251.63 3467.77 3241.97 3467.62 3224.4C3467.62 3206.53 3475.24 3196.72 3486.08 3196.72C3497.21 3196.87 3503.65 3206.82 3503.65 3223.66ZM3474.8 3224.54C3474.8 3238.31 3479.05 3246.21 3485.64 3246.21C3492.96 3246.21 3496.47 3237.57 3496.47 3224.1C3496.47 3211.07 3493.11 3202.43 3485.64 3202.43C3479.34 3202.28 3474.8 3210.05 3474.8 3224.54Z" fill="#C9E1FC"/>
<path d="M3525.76 3204.33H3525.62L3516.39 3209.31L3515.07 3203.89L3526.64 3197.74H3532.79V3250.9H3525.91V3204.33H3525.76Z" fill="#C9E1FC"/>
<path d="M3556.23 3245.77C3557.84 3245.92 3559.6 3245.77 3562.09 3245.48C3566.19 3244.9 3570.14 3243.14 3573.22 3240.36C3576.73 3237.14 3579.22 3232.45 3580.25 3226.15H3579.95C3577.02 3229.81 3572.78 3231.86 3567.5 3231.86C3557.99 3231.86 3551.83 3224.69 3551.83 3215.61C3551.83 3205.51 3559.16 3196.72 3569.99 3196.72C3580.83 3196.72 3587.57 3205.51 3587.57 3219.12C3587.57 3230.84 3583.61 3239.04 3578.49 3244.02C3574.39 3247.97 3568.82 3250.46 3563.11 3251.19C3560.47 3251.63 3558.28 3251.63 3556.52 3251.63V3245.77H3556.23ZM3558.86 3215.17C3558.86 3221.76 3562.82 3226.45 3569.12 3226.45C3573.95 3226.45 3577.76 3224.1 3579.51 3220.88C3579.95 3220.3 3580.1 3219.42 3580.1 3218.25C3580.1 3209.17 3576.73 3202.28 3569.26 3202.28C3563.26 3202.28 3558.86 3207.7 3558.86 3215.17Z" fill="#C9E1FC"/>
<path opacity="0.34" d="M3813.99 1387.97H2007.9V1680.4H3813.99V1387.97Z" fill="white"/>
<path opacity="0.34" d="M3813.99 1972.83H2007.9V2265.25H3813.99V1972.83Z" fill="white"/>
<path opacity="0.34" d="M3813.99 2557.83H2007.9V2850.26H3813.99V2557.83Z" fill="white"/>
<path d="M2599.88 1387.97H2007.9V1434.68H2599.88V1387.97Z" fill="#DAEBFD"/>
<path d="M2934.09 1510.83H2007.9V1557.54H2934.09V1510.83Z" fill="#A1CDFC"/>
<path d="M2504.83 1633.69H2007.9V1680.4H2504.83V1633.69Z" fill="#8CB4FA"/>
<path d="M3076.44 1972.83H2007.9V2019.54H3076.44V1972.83Z" fill="#DAEBFD"/>
<path d="M2407.87 2095.68H2007.9V2142.4H2407.87V2095.68Z" fill="#A1CDFC"/>
<path d="M3212.06 2218.69H2007.9V2265.4H3212.06V2218.69Z" fill="#8CB4FA"/>
<path d="M2446.98 2561.64H2007.9V2608.35H2446.98V2561.64Z" fill="#DAEBFD"/>
<path d="M2807.84 2684.49H2007.9V2731.21H2807.84V2684.49Z" fill="#A1CDFC"/>
<path d="M3001.75 2807.35H2007.9V2854.07H3001.75V2807.35Z" fill="#8CB4FA"/>
<path d="M4176.47 1179.89H4114.66V1241.68H4176.47V1179.89Z" fill="#C9E1FC"/>
<path d="M4351.48 1179.89H4289.68V1241.68H4351.48V1179.89Z" fill="#C9E1FC"/>
<path d="M4526.49 1179.89H4464.69V1241.68H4526.49V1179.89Z" fill="#C9E1FC"/>
<path d="M4701.51 1179.89H4639.7V1241.68H4701.51V1179.89Z" fill="#C9E1FC"/>
<path d="M4876.67 1179.89H4814.87V1241.68H4876.67V1179.89Z" fill="#C9E1FC"/>
<path d="M5051.68 1179.89H4989.88V1241.68H5051.68V1179.89Z" fill="#C8DCFD"/>
<path d="M5226.7 1179.89H5164.89V1241.68H5226.7V1179.89Z" fill="#C8DCFD"/>
<path d="M4176.47 1334.23H4114.66V1396.02H4176.47V1334.23Z" fill="#C9E1FC"/>
<path d="M4351.48 1334.23H4289.68V1396.02H4351.48V1334.23Z" fill="#C9E1FC"/>
<path d="M4526.49 1334.23H4464.69V1396.02H4526.49V1334.23Z" fill="#C9E1FC"/>
<path d="M4701.51 1334.23H4639.7V1396.02H4701.51V1334.23Z" fill="#C9E1FC"/>
<path d="M4876.67 1334.23H4814.87V1396.02H4876.67V1334.23Z" fill="#C9E1FC"/>
<path d="M5051.68 1334.23H4989.88V1396.02H5051.68V1334.23Z" fill="#C8DCFD"/>
<path d="M5226.7 1334.23H5164.89V1396.02H5226.7V1334.23Z" fill="#C8DCFD"/>
<path d="M4176.47 1488.57H4114.66V1550.36H4176.47V1488.57Z" fill="#C9E1FC"/>
<path d="M4351.48 1488.57H4289.68V1550.36H4351.48V1488.57Z" fill="#C9E1FC"/>
<path d="M4526.49 1488.57H4464.69V1550.36H4526.49V1488.57Z" fill="#8CB4FA"/>
<path d="M4701.51 1488.57H4639.7V1550.36H4701.51V1488.57Z" fill="#8CB4FA"/>
<path d="M4876.67 1488.57H4814.87V1550.36H4876.67V1488.57Z" fill="#C9E1FC"/>
<path d="M5051.68 1488.57H4989.88V1550.36H5051.68V1488.57Z" fill="#C8DCFD"/>
<path d="M5226.7 1488.57H5164.89V1550.36H5226.7V1488.57Z" fill="#C8DCFD"/>
<path d="M4176.47 1643.06H4114.66V1704.85H4176.47V1643.06Z" fill="#80C5FF"/>
<path d="M4351.48 1643.06H4289.68V1704.85H4351.48V1643.06Z" fill="#C9E1FC"/>
<path d="M4526.49 1643.06H4464.69V1704.85H4526.49V1643.06Z" fill="#C9E1FC"/>
<path d="M4701.51 1643.06H4639.7V1704.85H4701.51V1643.06Z" fill="#C9E1FC"/>
<path d="M4876.67 1643.06H4814.87V1704.85H4876.67V1643.06Z" fill="#C9E1FC"/>
<path d="M5051.68 1643.06H4989.88V1704.85H5051.68V1643.06Z" fill="#C8DCFD"/>
<path d="M5226.7 1643.06H5164.89V1704.85H5226.7V1643.06Z" fill="#C8DCFD"/>
<path d="M4176.47 1797.4H4114.66V1859.19H4176.47V1797.4Z" fill="#C9E1FC"/>
<path d="M4351.48 1797.4H4289.68V1859.19H4351.48V1797.4Z" fill="#C9E1FC"/>
<path d="M4526.49 1797.4H4464.69V1859.19H4526.49V1797.4Z" fill="#C9E1FC"/>
<path d="M4701.51 1797.4H4639.7V1859.19H4701.51V1797.4Z" fill="#C9E1FC"/>
<path d="M4876.67 1797.4H4814.87V1859.19H4876.67V1797.4Z" fill="#C9E1FC"/>
<path d="M5051.68 1797.4H4989.88V1859.19H5051.68V1797.4Z" fill="#C8DCFD"/>
<path d="M5226.7 1797.4H5164.89V1859.19H5226.7V1797.4Z" fill="#C8DCFD"/>
<path d="M4176.47 1951.89H4114.66V2013.68H4176.47V1951.89Z" fill="#C9E1FC"/>
<path d="M4351.48 1951.89H4289.68V2013.68H4351.48V1951.89Z" fill="#C9E1FC"/>
<path d="M4526.49 1951.89H4464.69V2013.68H4526.49V1951.89Z" fill="#C9E1FC"/>
<path d="M4701.51 1951.89H4639.7V2013.68H4701.51V1951.89Z" fill="#C9E1FC"/>
<path d="M4876.67 1951.89H4814.87V2013.68H4876.67V1951.89Z" fill="#C9E1FC"/>
<path d="M5051.68 1951.89H4989.88V2013.68H5051.68V1951.89Z" fill="#C9E1FC"/>
<path d="M5226.7 1951.89H5164.89V2013.68H5226.7V1951.89Z" fill="#C9E1FC"/>
<path d="M4055.35 3104.32L4050.37 3106.96L4049.64 3104.03L4055.79 3100.8H4059.01V3128.92H4055.35V3104.32V3104.32Z" fill="#C9E1FC"/>
<path d="M4087.86 3114.42C4087.86 3123.94 4084.35 3129.21 4078.05 3129.21C4072.63 3129.21 4068.82 3124.09 4068.82 3114.86C4068.82 3105.49 4072.92 3100.22 4078.64 3100.22C4084.49 3100.22 4087.86 3105.49 4087.86 3114.42ZM4072.63 3114.86C4072.63 3122.18 4074.83 3126.28 4078.34 3126.28C4082.3 3126.28 4084.05 3121.75 4084.05 3114.57C4084.05 3107.69 4082.3 3103.15 4078.34 3103.15C4074.97 3103.29 4072.63 3107.25 4072.63 3114.86Z" fill="#C9E1FC"/>
<path d="M4047 2983.95V2981.61L4049.93 2978.68C4057.11 2971.8 4060.33 2968.28 4060.33 2964.04C4060.33 2961.26 4059.01 2958.62 4054.76 2958.62C4052.27 2958.62 4050.08 2959.94 4048.76 2960.96L4047.59 2958.33C4049.49 2956.72 4052.27 2955.54 4055.49 2955.54C4061.5 2955.54 4064.14 2959.64 4064.14 2963.74C4064.14 2968.87 4060.33 2973.12 4054.47 2978.83L4052.27 2980.88V2981.02H4064.87V2984.25H4047V2983.95Z" fill="#C9E1FC"/>
<path d="M4087.86 2969.6C4087.86 2979.12 4084.35 2984.39 4078.05 2984.39C4072.63 2984.39 4068.82 2979.27 4068.82 2970.04C4068.82 2960.67 4072.92 2955.4 4078.63 2955.4C4084.49 2955.4 4087.86 2960.67 4087.86 2969.6ZM4072.63 2970.04C4072.63 2977.36 4074.83 2981.46 4078.34 2981.46C4082.3 2981.46 4084.05 2976.92 4084.05 2969.75C4084.05 2962.87 4082.3 2958.33 4078.34 2958.33C4074.97 2958.47 4072.63 2962.43 4072.63 2970.04Z" fill="#C9E1FC"/>
<path d="M4047.88 2834.74C4048.9 2835.47 4051.39 2836.49 4054.03 2836.49C4058.86 2836.49 4060.47 2833.42 4060.33 2831.08C4060.33 2827.12 4056.81 2825.51 4053.01 2825.51H4050.95V2822.73H4053.01C4055.79 2822.73 4059.3 2821.26 4059.3 2818.04C4059.3 2815.85 4057.84 2813.8 4054.32 2813.8C4052.13 2813.8 4049.93 2814.82 4048.76 2815.7L4047.73 2812.92C4049.2 2811.89 4051.98 2810.72 4055.06 2810.72C4060.62 2810.72 4063.11 2813.94 4063.11 2817.46C4063.11 2820.39 4061.35 2822.87 4057.98 2824.05V2824.19C4061.5 2824.92 4064.28 2827.41 4064.28 2831.37C4064.28 2835.91 4060.77 2839.71 4054.03 2839.71C4050.81 2839.71 4048.17 2838.69 4046.71 2837.81L4047.88 2834.74Z" fill="#C9E1FC"/>
<path d="M4087.86 2824.78C4087.86 2834.3 4084.35 2839.57 4078.05 2839.57C4072.63 2839.57 4068.82 2834.44 4068.82 2825.22C4068.82 2815.85 4072.92 2810.57 4078.63 2810.57C4084.49 2810.57 4087.86 2815.85 4087.86 2824.78ZM4072.63 2825.22C4072.63 2832.54 4074.83 2836.64 4078.34 2836.64C4082.3 2836.64 4084.05 2832.1 4084.05 2824.92C4084.05 2818.04 4082.3 2813.5 4078.34 2813.5C4074.97 2813.5 4072.63 2817.6 4072.63 2825.22Z" fill="#C9E1FC"/>
<path d="M4058.72 2694.31V2686.69H4045.68V2684.2L4058.13 2666.34H4062.23V2683.76H4066.19V2686.69H4062.23V2694.31H4058.72V2694.31ZM4058.72 2683.62V2674.24C4058.72 2672.78 4058.72 2671.32 4058.86 2669.85H4058.72C4057.84 2671.46 4057.1 2672.63 4056.37 2673.95L4049.49 2683.47V2683.62H4058.72V2683.62Z" fill="#C9E1FC"/>
<path d="M4087.86 2679.95C4087.86 2689.47 4084.35 2694.74 4078.05 2694.74C4072.63 2694.74 4068.82 2689.62 4068.82 2680.39C4068.82 2671.02 4072.92 2665.75 4078.63 2665.75C4084.49 2665.75 4087.86 2671.02 4087.86 2679.95ZM4072.63 2680.39C4072.63 2687.72 4074.83 2691.82 4078.34 2691.82C4082.3 2691.82 4084.05 2687.28 4084.05 2680.1C4084.05 2673.22 4082.3 2668.68 4078.34 2668.68C4074.97 2668.68 4072.63 2672.78 4072.63 2680.39Z" fill="#C9E1FC"/>
<path d="M4063.84 2524.59H4053.15L4052.13 2531.76C4052.71 2531.62 4053.44 2531.62 4054.47 2531.62C4056.67 2531.62 4058.72 2532.06 4060.47 2533.08C4062.67 2534.4 4064.43 2536.74 4064.43 2540.26C4064.43 2545.67 4060.03 2549.78 4054.03 2549.78C4050.95 2549.78 4048.32 2548.9 4047 2548.02L4047.88 2545.09C4049.05 2545.82 4051.39 2546.7 4053.88 2546.7C4057.4 2546.7 4060.47 2544.36 4060.47 2540.55C4060.47 2536.89 4057.98 2534.4 4052.42 2534.4C4050.81 2534.4 4049.64 2534.55 4048.46 2534.69L4050.22 2521.22H4063.7V2524.59H4063.84Z" fill="#C9E1FC"/>
<path d="M4087.86 2535.13C4087.86 2544.65 4084.35 2549.92 4078.05 2549.92C4072.63 2549.92 4068.82 2544.8 4068.82 2535.57C4068.82 2526.2 4072.92 2520.93 4078.63 2520.93C4084.49 2520.93 4087.86 2526.2 4087.86 2535.13ZM4072.63 2535.57C4072.63 2542.89 4074.83 2546.99 4078.34 2546.99C4082.3 2546.99 4084.05 2542.45 4084.05 2535.28C4084.05 2528.4 4082.3 2523.86 4078.34 2523.86C4074.97 2523.86 4072.63 2527.81 4072.63 2535.57Z" fill="#C9E1FC"/>
<path d="M4063.11 2379.18C4062.38 2379.18 4061.35 2379.18 4060.33 2379.33C4054.32 2380.35 4051.25 2384.75 4050.51 2389.28H4050.66C4051.98 2387.53 4054.32 2386.06 4057.4 2386.06C4062.38 2386.06 4065.89 2389.58 4065.89 2395.14C4065.89 2400.27 4062.38 2405.1 4056.52 2405.1C4050.51 2405.1 4046.56 2400.41 4046.56 2393.09C4046.56 2387.53 4048.61 2383.13 4051.25 2380.5C4053.59 2378.16 4056.67 2376.84 4060.18 2376.4C4061.35 2376.25 4062.23 2376.25 4062.96 2376.25V2379.18H4063.11ZM4061.94 2395.44C4061.94 2391.48 4059.6 2388.99 4056.23 2388.99C4053.88 2388.99 4051.83 2390.46 4050.81 2392.51C4050.51 2392.95 4050.37 2393.53 4050.37 2394.12C4050.51 2398.8 4052.57 2402.17 4056.52 2402.17C4059.74 2402.17 4061.94 2399.39 4061.94 2395.44Z" fill="#C9E1FC"/>
<path d="M4087.86 2390.31C4087.86 2399.83 4084.35 2405.1 4078.05 2405.1C4072.63 2405.1 4068.82 2399.97 4068.82 2390.75C4068.82 2381.38 4072.92 2376.11 4078.63 2376.11C4084.49 2376.11 4087.86 2381.38 4087.86 2390.31ZM4072.63 2390.6C4072.63 2397.92 4074.83 2402.02 4078.34 2402.02C4082.3 2402.02 4084.05 2397.48 4084.05 2390.31C4084.05 2383.43 4082.3 2378.89 4078.34 2378.89C4074.97 2379.03 4072.63 2382.99 4072.63 2390.6Z" fill="#C9E1FC"/>
<path d="M4222.89 3231.28L4218.5 3233.62L4217.91 3231.13L4223.33 3228.2H4226.11V3252.8H4222.89V3231.28V3231.28Z" fill="#C9E1FC"/>
<path d="M4438.62 3252.8V3250.75L4441.26 3248.26C4447.55 3242.26 4450.34 3239.19 4450.34 3235.38C4450.34 3232.89 4449.17 3230.55 4445.5 3230.55C4443.31 3230.55 4441.4 3231.72 4440.23 3232.6L4439.21 3230.25C4440.96 3228.79 4443.31 3227.76 4446.24 3227.76C4451.51 3227.76 4453.71 3231.42 4453.71 3234.94C4453.71 3239.48 4450.48 3243.14 4445.21 3248.12L4443.31 3249.88V3250.02H4454.29V3252.8H4438.62V3252.8Z" fill="#C9E1FC"/>
<path d="M4662.55 3249C4663.43 3249.58 4665.63 3250.61 4667.97 3250.61C4672.22 3250.61 4673.53 3247.83 4673.53 3245.78C4673.53 3242.26 4670.46 3240.8 4667.24 3240.8H4665.33V3238.31H4667.24C4669.73 3238.31 4672.66 3236.99 4672.66 3234.21C4672.66 3232.3 4671.34 3230.55 4668.41 3230.55C4666.5 3230.55 4664.6 3231.42 4663.43 3232.16L4662.55 3229.67C4663.87 3228.79 4666.36 3227.76 4668.99 3227.76C4673.83 3227.76 4676.02 3230.69 4676.02 3233.62C4676.02 3236.11 4674.56 3238.31 4671.48 3239.48C4674.56 3240.06 4676.9 3242.41 4676.9 3245.78C4676.9 3249.73 4673.83 3253.1 4667.97 3253.1C4665.19 3253.1 4662.84 3252.22 4661.53 3251.49L4662.55 3249Z" fill="#C9E1FC"/>
<path d="M4894.98 3252.8V3246.07H4883.55V3243.87L4894.54 3228.2H4898.2V3243.43H4901.57V3246.07H4898.2V3252.8H4894.98V3252.8ZM4894.98 3243.43V3235.23C4894.98 3233.91 4894.98 3232.6 4895.12 3231.42H4894.98C4894.25 3232.89 4893.66 3233.91 4892.93 3235.09L4886.92 3243.43V3243.58H4894.98V3243.43Z" fill="#C9E1FC"/>
<path d="M5122.42 3230.98H5113.05L5112.17 3237.28C5112.75 3237.14 5113.19 3237.13 5114.22 3237.13C5116.12 3237.13 5118.03 3237.57 5119.49 3238.45C5121.4 3239.48 5123.01 3241.67 5123.01 3244.75C5123.01 3249.58 5119.2 3253.1 5113.93 3253.1C5111.29 3253.1 5108.95 3252.36 5107.78 3251.63L5108.65 3249.14C5109.68 3249.73 5111.73 3250.46 5113.93 3250.46C5117 3250.46 5119.78 3248.41 5119.78 3245.19C5119.78 3241.97 5117.59 3239.77 5112.76 3239.77C5111.29 3239.77 5110.26 3239.92 5109.39 3240.06L5111 3228.2H5122.71V3230.98H5122.42Z" fill="#C9E1FC"/>
<path d="M5238.12 2312.11H4111V3198.33H5238.12V2312.11Z" stroke="#C9E1FC" stroke-width="0.4165" stroke-miterlimit="10"/>
<path d="M4111 3050.58H5238.12" stroke="#C9E1FC" stroke-width="0.4165" stroke-miterlimit="10"/>
<path d="M4111 2902.83H5238.12" stroke="#C9E1FC" stroke-width="0.4165" stroke-miterlimit="10"/>
<path d="M4111 2755.08H5238.12" stroke="#C9E1FC" stroke-width="0.4165" stroke-miterlimit="10"/>
<path d="M4111 2607.47H5238.12" stroke="#C9E1FC" stroke-width="0.4165" stroke-miterlimit="10"/>
<path d="M4111 2459.72H5238.12" stroke="#C9E1FC" stroke-width="0.4165" stroke-miterlimit="10"/>
<path d="M5012.72 2312.11V3198.18" stroke="#C9E1FC" stroke-width="0.4165" stroke-miterlimit="10"/>
<path d="M4787.33 2312.11V3198.18" stroke="#C9E1FC" stroke-width="0.4165" stroke-miterlimit="10"/>
<path d="M4561.94 2312.11V3198.18" stroke="#C9E1FC" stroke-width="0.4165" stroke-miterlimit="10"/>
<path d="M4336.4 2312.11V3198.18" stroke="#C9E1FC" stroke-width="0.4165" stroke-miterlimit="10"/>
<path d="M4250.72 2821.12H4196.68V3198.18H4250.72V2821.12Z" fill="#008AFF"/>
<path d="M4475.97 2821.12H4421.93V3198.18H4475.97V2821.12Z" fill="#C8DCFD"/>
<path d="M4701.22 2821.12H4647.17V3198.18H4701.22V2821.12Z" fill="#8CB4FA"/>
<path d="M4926.32 2821.12H4872.28V3198.18H4926.32V2821.12Z" fill="#008AFF"/>
<path d="M5151.57 2821.12H5097.52V3198.18H5151.57V2821.12Z" fill="#8CB4FA"/>
<path d="M4250.72 2755.08H4196.68V2821.12H4250.72V2755.08Z" fill="#008AFF"/>
<path d="M4475.97 2530.45H4421.93V2821.12H4475.97V2530.45Z" fill="#C8DCFD"/>
<path d="M4926.32 2565.59H4872.28V2821.12H4926.32V2565.59Z" fill="#008AFF"/>
<path d="M5151.57 2346.96H5097.52V2821.26H5151.57V2346.96Z" fill="#8CB4FA"/>
<path d="M4372.28 2607.47C4372.28 2641 4345.04 2668.24 4311.5 2668.24C4277.96 2668.24 4250.72 2641 4250.72 2607.47C4250.72 2573.94 4277.96 2546.7 4311.5 2546.7C4345.04 2546.7 4372.28 2573.94 4372.28 2607.47Z" fill="#C8DCFD"/>
<path d="M4299.93 2625.04V2614.5H4282.06V2610.98L4299.34 2586.38H4305.06V2610.4H4310.47V2614.5H4305.06V2625.04H4299.93V2625.04ZM4299.93 2610.4V2597.51C4299.93 2595.46 4299.93 2593.41 4300.08 2591.51H4299.93C4298.76 2593.71 4297.73 2595.46 4296.71 2597.22L4287.34 2610.4V2610.55H4299.93V2610.4Z" fill="#EDF5F7"/>
<path d="M4337.28 2590.78H4322.49L4321.02 2600.73C4321.9 2600.59 4322.78 2600.44 4324.1 2600.44C4327.03 2600.44 4330.1 2601.03 4332.44 2602.49C4335.52 2604.25 4338.01 2607.47 4338.01 2612.45C4338.01 2620.06 4332 2625.63 4323.66 2625.63C4319.41 2625.63 4315.9 2624.46 4313.99 2623.28L4315.31 2619.33C4316.92 2620.21 4320 2621.53 4323.51 2621.53C4328.49 2621.53 4332.59 2618.31 4332.59 2613.18C4332.59 2608.2 4329.22 2604.69 4321.46 2604.69C4319.26 2604.69 4317.51 2604.98 4316.04 2605.13L4318.53 2586.53H4336.98V2590.78H4337.28Z" fill="#EDF5F7"/>
<path d="M4372.28 2607.47H4421.93" stroke="#C8DCFD" stroke-width="1.0155" stroke-miterlimit="10"/>
<path d="M5048.61 2459.72C5048.61 2493.25 5021.37 2520.49 4987.83 2520.49C4954.29 2520.49 4927.05 2493.25 4927.05 2459.72C4927.05 2426.18 4954.29 2398.95 4987.83 2398.95C5021.51 2398.95 5048.61 2426.18 5048.61 2459.72Z" fill="#8CB4FA"/>
<path d="M4983.14 2443.17H4968.35L4966.89 2453.13C4967.77 2452.98 4968.64 2452.84 4969.96 2452.84C4972.89 2452.84 4975.97 2453.42 4978.31 2454.89C4981.39 2456.64 4983.88 2459.87 4983.88 2464.84C4983.88 2472.31 4977.87 2478.02 4969.52 2478.02C4965.28 2478.02 4961.76 2476.85 4959.86 2475.68L4961.18 2471.73C4962.79 2472.6 4965.86 2473.92 4969.38 2473.92C4974.36 2473.92 4978.46 2470.7 4978.46 2465.58C4978.46 2460.6 4975.09 2457.08 4967.33 2457.08C4965.13 2457.08 4963.37 2457.38 4961.91 2457.52L4964.4 2438.93H4982.85V2443.17H4983.14Z" fill="#EDF5F7"/>
<path d="M4990.17 2467.63C4990.17 2462.79 4993.1 2459.28 4997.79 2457.23V2457.08C4993.54 2455.03 4991.64 2451.66 4991.64 2448.44C4991.64 2442.29 4996.76 2438.19 5003.65 2438.19C5011.12 2438.19 5014.92 2442.88 5014.92 2447.71C5014.92 2450.93 5013.31 2454.45 5008.63 2456.79V2456.94C5013.46 2458.84 5016.39 2462.21 5016.39 2466.89C5016.39 2473.63 5010.68 2478.17 5003.21 2478.17C4995.01 2478.02 4990.17 2473.19 4990.17 2467.63ZM5010.97 2467.33C5010.97 2462.65 5007.75 2460.45 5002.48 2458.84C4997.94 2460.16 4995.59 2463.09 4995.59 2466.75C4995.45 2470.7 4998.38 2474.07 5003.35 2474.07C5007.89 2474.22 5010.97 2471.29 5010.97 2467.33ZM4996.47 2448C4996.47 2451.81 4999.4 2454.01 5003.79 2455.18C5007.16 2454.01 5009.65 2451.66 5009.65 2448.15C5009.65 2445.07 5007.75 2441.85 5003.06 2441.85C4998.96 2441.85 4996.47 2444.64 4996.47 2448Z" fill="#EDF5F7"/>
<path d="M5048.61 2459.72H5098.4" stroke="#77A6D9" stroke-width="1.0155" stroke-miterlimit="10"/>
<path d="M2995.89 3299.08C2985.05 3292.34 2947.71 3333.93 2931.89 3370.54C2900.84 3442.58 2892.93 3482.41 2880.78 3561.78C2861.74 3687.71 2829.37 3887.74 2818.68 3972.82C2809.01 4049.55 2778.11 4140.34 2824.39 4127.45C2823.66 4022.17 2872.14 3863.29 2900.26 3779.96C2996.04 3495.15 3029.43 3319.58 2995.89 3299.08Z" fill="#E2D4B7"/>
<path d="M2776.65 3366.58C2780.75 3346.37 2784.85 3326.46 2789.09 3306.98C2803.45 3278.43 2815.9 3263.49 2825.42 3265.69C2861.44 3274.18 2893.96 3436.87 2780.89 3823.46C2775.18 3842.93 2699.32 4179.88 2699.9 4171.53C2712.94 3955.25 2716.01 3666.19 2776.65 3366.58Z" fill="#E2D4B7"/>
<path d="M2696.1 4196.57C2676.62 4236.11 2652.31 4263.93 2641.91 4258.66C2631.51 4253.53 2638.83 4217.36 2658.31 4177.83C2677.79 4138.29 2702.1 4110.47 2712.5 4115.74C2723.04 4120.86 2715.72 4157.03 2696.1 4196.57Z" fill="#3863C6"/>
<path d="M2702.1 4173.14C2692.14 4204.04 2670.91 4226.44 2660.36 4221.32C2649.96 4216.19 2653.77 4189.69 2669.44 4161.13C2689.21 4125.11 2696.83 4114.86 2698.59 4089.09C2700.2 4064.78 2739.74 4056.87 2702.1 4173.14Z" fill="#E2D4B7"/>
<path d="M2904.36 4113.1C2904.36 4113.1 2893.96 4108.56 2864.96 4103.14C2848.12 4099.92 2835.23 4100.07 2829.22 4093.77C2819.27 4083.38 2824.83 4058.04 2819.85 4059.07C2795.98 4064.49 2787.63 4120.42 2801.69 4127.31C2815.6 4134.33 2894.4 4124.96 2900.84 4124.52C2907.43 4124.08 2906.41 4111.64 2904.36 4113.1Z" fill="#E2D4B7"/>
<path d="M2887.95 4107.98C2892.35 4126.72 2834.64 4119.25 2819.7 4114.27C2805.5 4109.59 2796.27 4108.12 2796.27 4108.12C2795.69 4108.12 2795.1 4107.98 2794.51 4107.98C2794.51 4108.42 2794.37 4108.86 2794.37 4109.29C2794.37 4119.69 2789.83 4133.31 2806.38 4133.31H2909.77C2994.43 4133.6 2887.81 4107.68 2887.95 4107.98Z" fill="#3863C6"/>
<path d="M3044.22 1880.57L3021.96 1727.11C2993.84 1697.53 2957.81 1681.72 2921.05 1686.99C2850.31 1697.24 2804.03 1782.02 2817.66 1876.47C2831.28 1970.78 2899.82 2039.01 2970.55 2028.76C3020.06 2021.59 3057.55 1977.8 3070.88 1919.96C3056.82 1911.47 3046.56 1897.56 3044.22 1880.57Z" fill="#202D47"/>
<path d="M2763.17 1969.17C2760.54 1993.62 2786.31 2016.61 2820.88 2020.42L2899.67 2029.06C2934.23 2032.86 2964.4 2016.02 2967.18 1991.57L2991.79 1767.97C2994.57 1743.36 2968.65 1720.52 2934.09 1716.71L2855.29 1708.07C2820.73 1704.27 2790.56 1721.11 2787.78 1745.56L2763.17 1969.17Z" fill="#202D47"/>
<path d="M2968.65 2065.23C3015.37 2085.43 3038.8 2079.14 3003.07 2094.22C2985.93 2115.31 2766.39 2086.02 2754.53 2058.78C2752.63 2054.24 2841.67 2041.06 2842.11 2037.7C2847.53 1998.16 2849.73 1964.77 2838.74 1920.7C2839.18 1917.18 2841.82 1914.54 2844.6 1914.54C2861.3 1914.98 2877.99 1915.13 2894.69 1915.57C2897.47 1915.72 2930.13 1922.89 2922.81 1938.56C2919.29 1981.61 2919.29 2043.7 2968.65 2065.23Z" fill="#E2D4B7"/>
<path d="M2983.59 1935.63C2984.32 1934.02 2985.05 1932.41 2985.79 1930.95C2985.93 1930.51 2986.22 1930.07 2986.37 1929.48C2987.25 1927.58 2988.13 1925.53 2988.86 1923.33C2989.15 1922.75 2989.3 1922.16 2989.45 1921.72C2990.03 1920.11 2990.62 1918.5 2991.2 1916.89C2991.5 1916.01 2991.79 1915.13 2992.08 1914.25C2992.52 1912.93 2992.96 1911.47 2993.4 1910.15C2993.69 1909.27 2993.99 1908.25 2994.28 1907.22C2994.87 1905.47 2995.3 1903.56 2995.74 1901.66C2996.04 1900.34 2996.48 1898.88 2996.77 1897.41C2997.06 1896.09 2997.36 1894.78 2997.65 1893.61C2997.94 1892.29 2998.23 1890.97 2998.38 1889.65C2998.67 1888.48 2998.82 1887.46 2998.97 1886.14C2999.11 1885.26 2999.26 1884.38 2999.55 1883.35C3002.33 1867.39 2996.92 1792.57 2984.17 1756.84C2982.71 1752.44 2978.02 1749.08 2971.58 1749.81C2933.06 1754.05 2815.46 1748.64 2845.92 1855.68V1855.83C2845.92 1856.12 2847.68 1865.34 2848.56 1869.59C2848.7 1870.03 2848.7 1870.32 2848.85 1870.62C2849.73 1874.86 2850.75 1879.11 2851.92 1883.06C2852.07 1883.36 2852.07 1883.65 2852.22 1883.94C2853.39 1888.04 2854.56 1892.14 2855.88 1896.09C2855.88 1896.24 2855.88 1896.39 2856.03 1896.53C2872.87 1947.05 2902.31 1980.29 2933.5 1978.1C2951.66 1976.78 2967.62 1963.75 2979.63 1942.66C2979.78 1942.51 2979.78 1942.37 2979.93 1942.22C2980.81 1940.61 2981.68 1939 2982.56 1937.24C2983.15 1936.66 2983.3 1936.22 2983.59 1935.63Z" fill="#E2D4B7"/>
<path d="M2340.94 2025.4C2340.94 2025.4 2332.74 2029.35 2329.37 2023.05C2323.81 2012.8 2321.76 1989.37 2321.32 1981.03C2320.88 1971.65 2326.3 1927.58 2326.3 1927.58C2326.3 1927.58 2335.38 1941.49 2333.18 1959.21C2330.11 1985.13 2340.94 2025.4 2340.94 2025.4Z" fill="#E2D4B7"/>
<path d="M2340.21 2019.24C2332.74 2004.16 2336.7 1985.13 2346.65 1963.75C2356.17 1943.54 2349.29 1930.8 2349.29 1930.8C2349.29 1930.8 2341.82 1943.25 2330.4 1976.19C2327.18 1985.42 2324.25 1995.67 2324.69 2005.48C2325.71 2034.62 2359.25 2058.05 2340.21 2019.24Z" fill="#E2D4B7"/>
<path d="M2654.5 2204.34C2611.88 2235.82 2574.1 2346.67 2544.66 2416.96C2528.11 2456.5 2534.26 2486.37 2534.26 2486.37C2534.26 2486.37 2548.76 2579.21 2659.34 2326.17C2687.02 2263.06 2670.61 2192.48 2654.5 2204.34Z" fill="#E2D4B7"/>
<path d="M2340.5 2000.79L2333.33 2005.33L2328.49 2033.89C2328.49 2033.89 2341.38 2084.55 2353.1 2101.98C2364.81 2119.26 2412.27 2256.03 2420.03 2262.18C2433.94 2273.02 2461.47 2235.82 2461.47 2235.82C2461.47 2235.82 2401.28 2140.2 2388.98 2109.6C2376.82 2078.99 2374.48 2029.2 2370.09 2016.9C2362.62 1996.11 2360.13 1985.13 2360.13 1985.13C2360.13 1985.13 2349.58 1990.69 2359.25 2023.93C2361.74 2032.72 2350.61 2030.96 2350.61 2030.96L2340.5 2000.79Z" fill="#E2D4B7"/>
<path d="M2734.61 2364.24L3027.52 2361.9L3063.26 2026.86L2715.72 2059.95L2734.61 2364.24Z" fill="#3863C6"/>
<path d="M3044.22 3362.19C2900.26 3384.74 2874.19 3365.56 2708.69 3341.98C2693.02 3342.27 2625.95 3181.2 2673.25 2756.25C2682.92 2668.68 2749.11 2598.39 2734.03 2360.73C2832.45 2358.83 2930.87 2356.92 3029.43 2355.02C2990.03 2571.01 3224.07 2604.54 3044.22 3362.19Z" fill="#3863C6"/>
<path d="M3054.03 2451.96L3012.44 2158.36L3022.54 2039.89C3029.43 2033.01 3038.22 2028.47 3047.88 2027.15L3054.47 2026.27C3080.1 2023.2 3103.24 2044.72 3106.02 2074.45L3138.68 2476.56L3054.03 2451.96Z" fill="#3863C6"/>
<path d="M2585.67 2487.98L2718.51 2231.72L2758.93 2081.92C2753.65 2074.45 2746.33 2068.45 2737.11 2065.08L2730.95 2062.74C2706.79 2053.66 2679.99 2065.96 2670.91 2089.97L2529.29 2382.69L2585.67 2487.98Z" fill="#3863C6"/>
<path d="M2338.31 2037.11C2338.31 2037.11 2330.25 2011.63 2334.35 1998.89C2337.28 1989.96 2357.49 1950.42 2357.49 1950.42C2357.49 1950.42 2361.15 1966.53 2353.1 1982.49C2341.24 2005.77 2338.31 2037.11 2338.31 2037.11Z" fill="#E2D4B7"/>
<path d="M2350.61 2030.96C2350.61 2030.96 2358.08 2032.72 2360.57 2030.37C2360.71 2032.86 2360.13 2035.5 2359.84 2037.4C2359.4 2041.8 2361.74 2071.81 2361.74 2071.81C2361.74 2071.81 2355.74 2050.58 2352.66 2044.72C2350.76 2041.06 2348.71 2032.13 2346.8 2024.66C2346.51 2023.78 2346.95 2022.17 2346.8 2020.42L2350.61 2030.96Z" fill="#E2D4B7"/>
<path d="M2359.25 2023.93C2352.66 2001.53 2355.3 1991.72 2357.78 1987.62C2359.25 1992.89 2361.89 2001.38 2365.99 2013.24C2367.45 2017.49 2368.77 2026.27 2370.23 2037.26C2370.53 2039.31 2362.62 2041.36 2359.54 2059.37C2358.96 2062.59 2352.95 2042.97 2351.93 2031.11C2355.15 2031.25 2361.3 2030.81 2359.25 2023.93Z" fill="#E2D4B7"/>
<path d="M2911.09 1905.32C2896.89 1896.68 2886.78 1882.62 2884.29 1865.78L2862.03 1712.47C2860.71 1711 2859.25 1709.83 2857.93 1708.51L2855.29 1708.22C2820.73 1704.41 2790.56 1721.25 2787.78 1745.71L2763.17 1969.31C2761.12 1988.2 2776.06 2006.07 2798.91 2015C2802.86 2014.85 2806.82 2014.71 2810.77 2014.12C2860.27 2006.8 2897.76 1963.16 2911.09 1905.32Z" fill="#202D47"/>
<path d="M2816.63 2146.06L3123.01 2115.45L3018.3 2514.34L2736.08 2544.36L2816.63 2146.06Z" fill="#2C4170"/>
<path d="M2987.1 2319.43C2952.54 2265.99 2962.06 2227.47 2956.06 2201.41C2949.9 2175.49 2947.71 2146.64 2947.56 2146.94C2934.38 2172.12 2944.92 2189.84 2943.9 2202.73C2942.73 2215.61 2944.63 2211.22 2931.01 2193.06C2923.25 2182.67 2928.38 2152.65 2929.11 2132.73C2929.84 2115.6 2925.74 2107.69 2925.74 2107.69C2925.74 2107.69 2917.1 2132.73 2914.32 2159.38C2911.09 2191.6 2913.73 2227.03 2915.63 2234.65C2918.86 2248.71 2940.82 2285.02 2960.45 2308.6C2982.42 2335.25 3012.15 2357.95 2987.1 2319.43Z" fill="#E2D4B7"/>
<path d="M3104.85 2454.01C3029.58 2363.66 2929.84 2260.86 2929.84 2260.86L3066.78 2495.45C3066.78 2495.45 3142.49 2499.25 3104.85 2454.01Z" fill="#E2D4B7"/>
<path d="M3119.79 2429.55C3119.79 2429.55 3168.27 2494.72 3124.63 2518.88C3099.87 2532.64 3079.81 2524 3065.6 2503.94C3039.1 2466.89 3010.98 2423.26 3010.98 2423.26L3058.28 2361.46L3119.79 2429.55Z" fill="#3863C6"/>
<path d="M2914.46 2212.68C2914.46 2212.68 2900.26 2164.8 2901.13 2154.55C2901.72 2147.37 2910.22 2114.28 2910.22 2114.28C2910.22 2114.28 2916.81 2131.41 2914.17 2144.88C2911.53 2158.5 2914.46 2212.68 2914.46 2212.68Z" fill="#D8C39B"/>
<path d="M2454.01 2209.61C2454.01 2209.61 2393.81 2235.97 2401.28 2262.33C2408.75 2288.68 2480.37 2495.59 2525.48 2514.34C2570.59 2533.08 2593.14 2472.9 2596.95 2457.96C2600.76 2442.73 2454.01 2209.61 2454.01 2209.61Z" fill="#3863C6"/>
<path d="M3990.76 4155.72C3986.07 4150 3989.44 4134.78 3989.44 4134.78C3989.44 4134.78 4072.34 4125.55 4098.99 4131.85C4105.87 4133.46 4117.59 4139.46 4128.58 4145.76C4130.48 4146.93 4133.7 4153.23 4135.46 4154.25C4138.83 4156.3 4140.58 4152.93 4143.37 4154.69C4150.69 4159.38 4155.96 4162.89 4155.96 4163.48C4163.29 4201.55 4153.62 4216.78 4153.62 4216.78C4153.62 4216.78 4085.52 4238.01 4069.85 4223.81C4030.6 4188.08 4001.16 4168.31 3990.76 4155.72Z" fill="#1D1D18"/>
<path d="M3795.39 4234.64L3783.67 4296.44H3720.7C3720.7 4296.44 3717.18 4287.65 3711.91 4287.65C3707.37 4287.65 3701.66 4296.44 3695.51 4296.44C3682.33 4296.44 3667.53 4296.44 3661.67 4296.44C3649.96 4296.44 3535.28 4296.44 3535.28 4296.44C3535.28 4296.44 3532.5 4283.41 3535.87 4279.01C3537.63 4276.67 3548.17 4272.72 3555.2 4270.81C3587.71 4261.73 3680.71 4233.18 3696.97 4202.14C3716.6 4164.21 3795.39 4234.64 3795.39 4234.64Z" fill="#1D1D18"/>
<path d="M3745.3 2153.67L3730.22 2078.84C3730.22 2078.84 3677.05 2082.94 3666.66 2054.39C3645.86 1996.99 3663.29 1905.32 3675.88 1879.55C3711.62 1806.48 3726.85 1678.2 3894.39 1780.12C3958.1 1818.78 3859.68 2006.8 3852.36 2047.36C3845.04 2088.07 3866.71 2134.78 3866.71 2134.78L3827.46 2164.22L3745.3 2153.67Z" fill="#E2D4B7"/>
<path d="M4043.34 2861.68L4010.53 3096.85C4010.53 3096.85 4137.66 2999.47 4146.3 2888.04C4154.94 2776.6 4048.9 2852.89 4043.34 2861.68Z" fill="#D8C39B"/>
<path d="M3876.67 3300.1C3876.67 3300.1 3852.07 3310.79 3924.42 3653.74C3976.41 3900.63 4020.93 4081.33 4041.73 4163.18C4049.78 4194.96 4058.86 4189.25 4058.86 4189.25L4127.7 4196.86L4160.5 4168.45L4062.09 3608.78L3876.67 3300.1Z" fill="#30549D"/>
<path d="M3492.81 2708.07L3633.85 2978.39C3633.85 2978.39 3364.81 2783.78 3381.65 2676.73C3398.49 2569.54 3492.81 2708.07 3492.81 2708.07Z" fill="#E2D4B7"/>
<path d="M4044.8 2226.6C4044.8 2226.6 4101.92 2261.59 4143.07 2545.38C4184.23 2829.17 4158.01 2818.34 4158.01 2818.34L4150.54 2883.06L4043.63 2894.48L3985.93 2649.5L4044.8 2226.6Z" fill="#34456B"/>
<path d="M3754.09 2965.35C3754.09 2965.35 3895.86 3621.96 4012.58 3917.61C4080.98 4090.84 4089.62 3761.81 4089.62 3761.81L3999.99 2811.01L3671.34 2787.14C3671.34 2787.14 3708.25 2799.59 3754.09 2965.35Z" fill="#30549D"/>
<path d="M3897.03 2789.34C3897.03 2789.34 3777.81 3634.7 3765.37 3672.92C3722.89 3802.08 3657.57 3632.8 3642.64 3589.75C3627.7 3546.7 3602.8 3228.35 3607.78 2995.96C3612.76 2763.57 3612.76 2763.57 3612.76 2763.57L3897.03 2789.34Z" fill="#30549D"/>
<path d="M3777.38 3461.47C3777.38 3461.47 3795.39 3562.37 3810.33 3691.08C3821.31 3785.68 3821.6 4055.85 3804.18 4243.43C3803.15 4254.85 3683.79 4220 3683.79 4220C3683.79 4220 3640.15 3694.74 3630.19 3577.16C3620.38 3459.72 3702.54 3377.57 3777.38 3461.47Z" fill="#30549D"/>
<path d="M4048.32 2227.18L3907.57 2163.34L3868.76 2126.58L3719.09 2123.07L3692.87 2166.12L3576.88 2216.35C3576.88 2216.35 3548.32 2261.3 3573.22 2428.38C3600.75 2613.33 3591.82 3206.97 3591.82 3206.97C3591.82 3206.97 3754.67 3249 3912.26 3233.18C4032.65 3221.17 4069.85 3191.16 4069.85 3191.16C4069.85 3191.16 4007.16 2316.95 4048.32 2227.18Z" fill="#34456B"/>
<path d="M3614.37 2216.79C3614.37 2216.79 3588.15 2187.65 3524.59 2266.72C3416.22 2401.44 3363.64 2568.52 3352.51 2600.73C3341.38 2633.1 3326.88 2678.93 3371.25 2732.67C3405.09 2773.82 3416.07 2787.58 3416.07 2787.58L3513.32 2726.96L3497.94 2697.82L3487.1 2683.32C3487.1 2683.32 3539.38 2568.37 3595.48 2464.11C3651.86 2360 3614.37 2216.79 3614.37 2216.79Z" fill="#34456B"/>
<path d="M3723.19 1900.93C3723.19 1900.93 3742.08 1889.36 3745.01 1903.86C3747.94 1918.5 3737.69 1950.42 3729.04 1953.35C3720.26 1956.28 3717.33 1995.52 3717.33 1995.52L3740.61 2039.31H3858.66C3858.66 2039.31 3895.12 2023.35 3898.05 1996.99C3900.98 1970.78 3930.13 1785.83 3930.13 1785.83L3847.09 1742.05C3847.09 1742.05 3803.44 1720.23 3772.83 1711.44C3725.97 1697.97 3716.01 1723.01 3717.47 1736.19C3718.94 1749.22 3704.44 1750.69 3685.4 1750.69C3666.51 1750.69 3643.08 1765.18 3653.33 1773.97C3657.57 1777.48 3638.68 1789.05 3646.15 1802.96C3656.84 1822.73 3692.58 1829.32 3695.51 1861.24C3696.82 1876.18 3702.83 1924.21 3723.19 1900.93Z" fill="#1C263A"/>
<path d="M6480.06 1651.11C6480.06 1651.11 6413.72 1651.26 6395.12 1624.61C6376.67 1597.81 6436.42 1610.99 6407.57 1626.8C6378.86 1642.62 6320.57 1605.13 6339.32 1575.99C6358.07 1546.85 6384.72 1535.87 6408.01 1555.78C6431.29 1575.7 6410.2 1584.04 6402.3 1565.89C6394.39 1547.73 6435.39 1508.48 6462.2 1571.45C6489 1634.42 6471.42 1637.64 6463.81 1596.78C6456.19 1555.93 6483.73 1532.79 6498.66 1581.26C6513.6 1629.73 6482.85 1650.53 6477.28 1629C6471.72 1607.33 6537.03 1568.23 6538.35 1608.65C6539.82 1649.06 6539.67 1697.38 6509.06 1695.48C6478.6 1693.58 6558.27 1594.44 6579.07 1682.59C6599.86 1770.75 6545.97 1740 6545.38 1720.52C6544.8 1701.05 6646.58 1745.56 6563.1 1767.09C6479.48 1788.61 6512.87 1756.69 6507.74 1736.63C6502.47 1716.42 6573.5 1774.26 6529.27 1812.63C6485.04 1850.99 6446.82 1839.86 6458.53 1796.96C6470.25 1754.05 6514.33 1780.56 6496.76 1815.56C6479.04 1850.55 6483.14 1842.5 6491.63 1847.04C6499.98 1851.58 6443.6 1874.28 6433.93 1838.4C6424.41 1802.23 6427.19 1659.31 6480.06 1651.11Z" fill="#202D47"/>
<path d="M6383.69 1611.57L6330.82 1679.96L6329.65 1698.26L6293.48 1739.7L6305.93 1766.06L6292.89 1842.35C6292.89 1842.35 6284.4 1884.97 6323.94 1871.35C6344.74 1864.17 6341.81 1864.17 6341.81 1864.17C6341.81 1864.17 6334.19 1951.45 6310.03 1967.99C6285.86 1984.54 6333.75 1994.94 6341.96 2007.09C6349.42 2018.22 6372.27 2012.36 6395.27 2011.78C6436.13 2010.61 6462.49 2020.42 6479.77 2022.76C6492.22 2024.37 6495.73 1991.42 6494.41 1965.21C6493.1 1939.29 6463.95 1809.55 6463.95 1809.55C6463.95 1809.55 6470.54 1812.92 6480.5 1809.55C6490.46 1806.18 6536.3 1776.61 6523.56 1756.4C6510.82 1736.04 6478.6 1742.05 6466.73 1759.33C6454.87 1776.61 6437.44 1755.67 6445.21 1716.57C6453.11 1677.47 6533.96 1660.78 6444.91 1641.15C6385.16 1627.83 6383.69 1611.57 6383.69 1611.57Z" fill="#E2D4B7"/>
<path d="M6224.5 4032.27C6224.5 4032.27 6222.6 4055.26 6224.5 4064.93C6226.4 4074.59 6212.93 4105.34 6205.31 4114.86C6197.7 4124.52 6195.65 4111.05 6195.65 4111.05C6195.65 4111.05 6182.17 4132.14 6180.27 4143.71C6178.37 4155.28 6141.9 4207.11 6120.66 4226.3C6099.57 4245.48 6078.34 4255.14 6078.34 4255.14C6078.34 4255.14 6057.25 4264.81 6076.43 4207.11C6082.58 4188.52 6095.62 4148.25 6105.28 4130.24C6120.81 4101.39 6170.75 4003.42 6224.5 4032.27Z" fill="#1D1D18"/>
<path d="M6303 4152.49C6303 4152.49 6295.97 4163.18 6291.43 4185.88C6286.01 4213.26 6282.2 4239.91 6282.2 4239.91C6282.2 4239.91 6276.2 4268.18 6292.16 4276.08C6308.12 4283.84 6356.9 4243.58 6368.61 4227.61C6380.33 4211.65 6404.93 4150.88 6419.72 4129.5C6434.52 4108.12 6409.77 4055.55 6380.18 4077.96C6350.74 4100.51 6315.3 4130.82 6303 4152.49Z" fill="#1D1D18"/>
<path d="M6255.26 2679.66C6255.26 2679.66 6367.73 3019.68 6373.45 3155.13C6379.16 3290.58 6353.23 3486.51 6356.16 3509.65C6359.09 3532.64 6281.18 4143.71 6281.18 4143.71L6318.67 4189.83C6318.67 4189.83 6451.21 4120.72 6457.07 4100.51C6462.78 4080.3 6497.49 3682.59 6508.92 3610.54C6520.49 3538.5 6537.77 3400.12 6537.77 3362.78C6537.77 3325.29 6632.82 2800.76 6589.61 2688.45C6546.41 2575.99 6347.52 2622.11 6347.52 2622.11L6261.11 2625.04L6255.26 2679.66Z" fill="#2E4068"/>
<path d="M6387.8 2754.64C6387.8 2754.64 6200.48 3403.05 6197.55 3446.24C6194.62 3489.44 6246.61 4028.32 6246.61 4028.32L6119.78 4120.57L6042.02 3489.44C6042.02 3489.44 6039.09 3417.4 6047.73 3342.42C6056.37 3267.45 6165.92 2630.61 6165.92 2630.61L6318.67 2627.68L6387.8 2754.64Z" fill="#2E4068"/>
<path d="M6212.05 2627.82L6465.71 2633.54L6503.2 1901.51L6477.28 1872.67C6477.28 1872.67 6410.94 1970.63 6390.87 1970.63C6370.66 1970.63 6339.03 1961.99 6333.17 1950.42C6327.46 1938.85 6289.96 1950.42 6275.47 2065.67C6261.11 2181.2 6212.05 2627.82 6212.05 2627.82Z" fill="#E5ECF1"/>
<path d="M6335.95 1904.44C6335.95 1904.44 6341.66 1970.78 6387.8 1956.28C6433.93 1941.93 6477.14 1872.67 6477.14 1872.67L6428.07 2034.04C6428.07 2034.04 6384.87 1976.34 6367.59 1970.63C6350.31 1964.92 6318.52 2010.9 6318.52 2010.9C6318.52 2010.9 6315.74 1941.93 6335.95 1904.44Z" fill="#D2D9E8"/>
<path d="M6217.91 2022.03C6217.91 2022.03 6160.06 2014.56 6162.25 2112.52C6164.3 2210.49 6171.92 2291.03 6173.53 2371.71C6175.29 2452.4 6146.44 2588.43 6180.12 2541.58C6213.66 2494.86 6229.92 2041.94 6217.91 2022.03Z" fill="#354875"/>
<path d="M6480.06 1869.88C6480.06 1869.88 6676.02 1993.77 6704.87 2013.97C6733.72 2034.18 6753.93 2120.58 6701.94 2218.54C6650.1 2316.51 6615.53 2593.12 6615.53 2682.44C6615.53 2771.77 6595.32 2924.5 6595.32 2924.5C6595.32 2924.5 6480.06 2907.22 6439.64 2864.02C6399.22 2820.82 6347.37 2682.44 6364.66 2581.55C6381.94 2480.66 6422.36 2143.57 6439.64 2080.16C6457.07 2016.9 6480.06 1869.88 6480.06 1869.88Z" fill="#3A4C7B"/>
<path d="M6327.31 1916.01C6327.31 1916.01 6278.25 2215.76 6266.83 2293.52C6255.26 2371.27 6240.9 2653.74 6223.62 2711.44C6206.34 2769.13 6151.57 2852.6 6128.57 2878.52C6105.43 2904.44 6099.72 2869.88 6085.37 2829.46C6071.02 2789.05 6189.06 2552.85 6191.99 2365.56C6193.45 2267.6 6184.96 2143.71 6177.63 2111.94C6168.99 2074.45 6174.71 2034.18 6209.27 2016.9C6243.69 1999.62 6324.53 1924.65 6327.31 1916.01Z" fill="#3A4C7B"/>
<path d="M6439.79 2080.31C6427.93 2123.8 6405.22 2295.57 6386.62 2432.04L6523.41 2048.68L6494.56 2014.12L6540.7 1991.13C6540.7 1991.13 6529.71 1931.09 6523.85 1897.71C6498.08 1881.31 6480.21 1870.03 6480.21 1870.03C6480.21 1870.03 6457.07 2016.9 6439.79 2080.31Z" fill="#354875"/>
<path d="M6327.31 1916.01C6325.99 1919.82 6309.3 1936.8 6288.21 1955.99L6255.25 2005.33L6281.18 2022.61L6240.76 2054.24L6254.52 2419.45C6258.92 2365.71 6262.87 2318.7 6266.68 2293.52C6278.4 2215.76 6327.31 1916.01 6327.31 1916.01Z" fill="#354875"/>
<path d="M6722.15 2025.54L6799.92 2400.12C6799.92 2400.12 6822.91 2498.08 6771.07 2501.01C6719.22 2503.94 6664.45 2328.07 6644.24 2310.8C6624.03 2293.52 6609.68 2195.55 6612.6 2172.42C6615.53 2149.42 6681.88 1988.05 6722.15 2025.54Z" fill="#354875"/>
<path d="M6360.56 2436.87C6363.05 2442.73 6360.27 2449.47 6354.41 2451.96L6301.39 2474.51C6295.53 2477 6288.8 2474.22 6286.31 2468.36L6226.7 2328.81C6224.21 2322.95 6226.99 2316.21 6232.7 2313.72L6285.72 2291.17C6291.58 2288.68 6298.32 2291.47 6300.8 2297.32L6360.56 2436.87Z" fill="#1D1D18"/>
<path d="M6433.93 2397.34C6433.93 2397.34 6430.12 2393.53 6393.51 2381.96C6357.04 2370.39 6331.56 2367.03 6331.56 2367.03C6331.56 2367.03 6281.91 2370.83 6266.68 2366.59C6237.83 2358.39 6235.92 2366.59 6235.92 2366.59C6235.92 2366.59 6239.73 2376.25 6245.59 2383.87C6251.3 2391.48 6239.88 2397.34 6247.49 2406.86C6255.11 2416.52 6245.59 2406.86 6255.11 2416.52C6264.78 2426.19 6301.24 2435.7 6301.24 2435.7L6276.2 2437.61C6276.2 2437.61 6260.82 2429.99 6253.21 2433.8C6245.59 2437.61 6264.78 2445.37 6264.78 2445.37L6278.25 2449.17H6316.62C6316.62 2449.17 6376.23 2443.46 6393.51 2439.51C6410.79 2435.7 6439.64 2445.22 6439.64 2445.22L6433.93 2397.34Z" fill="#D8C39B"/>
<path d="M6453.26 2462.65L6426.31 2458.69L6422.51 2387.67L6457.07 2397.34L6453.26 2462.65Z" fill="#E5ECF1"/>
<path d="M6782.79 2423.26C6782.79 2423.26 6867.44 2518.44 6687.74 2503.94C6509.06 2489.59 6443.74 2478.02 6443.74 2478.02L6439.93 2382.99L6725.23 2377.28L6782.79 2423.26Z" fill="#354875"/>
<path d="M5824.53 2501.89L5861.58 2395.29C5861.58 2395.29 5874.47 2383.72 5892.48 2372.15C5905.37 2363.8 5923.97 2345.21 5929.39 2334.52C5932.47 2328.37 5943.74 2302.01 5945.36 2297.32C5946.97 2292.64 5883.26 2314.9 5869.34 2313.43C5855.43 2311.82 5860.26 2305.38 5868.17 2294.69C5884.87 2272.28 5832.14 2304.06 5830.68 2308.75C5829.07 2313.43 5827.61 2372.15 5827.61 2372.15L5795.09 2427.8L5824.53 2501.89Z" fill="#E2D4B7"/>
<path d="M5459.71 4261.73C5459.71 4261.73 5455.61 4244.16 5463.81 4226.73C5472.01 4209.16 5479.34 4190.71 5481.39 4154.54C5483.44 4118.52 5518.44 4224.68 5529.86 4252.51C5541.14 4280.33 5556.66 4303.03 5568.97 4309.18C5581.27 4315.33 5569.99 4338.02 5548.32 4342.12C5526.64 4346.22 5459.71 4261.73 5459.71 4261.73Z" fill="#E2D4B7"/>
<path d="M5553.44 3184.86C5553.44 3184.86 5573.51 3371.12 5561.5 3445.22C5549.49 3519.31 5519.46 3601.46 5521.37 3681.56C5522.69 3736.33 5520.93 4085.43 5520.93 4268.32C5520.93 4284.87 5507.02 4243.14 5507.02 4243.14C5507.02 4243.14 5442.14 4316.35 5456.05 4240.5C5477.29 4124.52 5439.06 3915.27 5429.69 3875.15C5398.79 3741.16 5397.17 3647.44 5415.19 3479.19C5433.2 3310.94 5415.19 3032.57 5415.19 3032.57L5553.44 3184.86Z" fill="#E2D4B7"/>
<path d="M5739.73 3144.88C5739.73 3144.88 5801.83 3393.23 5803.88 3461.33C5805.93 3529.42 5791.87 3623.57 5785.87 3681.71C5779.86 3739.84 5693.01 4070.2 5664.75 4198.91C5650.83 4262.32 5647.76 4289.12 5711.17 4279.3C5721.72 4277.69 5699.02 4334.51 5691.55 4346.22C5679.83 4364.68 5587.42 4284.87 5596.79 4262.17C5610.85 4228.05 5632.82 4021.29 5635.46 3994.78C5641.61 3930.94 5633.85 3750.53 5667.82 3633.53C5690.96 3553.72 5581.71 3200.97 5581.71 3200.97L5739.73 3144.88Z" fill="#E2D4B7"/>
<path d="M5685.69 1728.87C5685.69 1728.87 5683.64 1776.9 5693.75 1820.97C5703.71 1865.05 5711.76 1929.19 5695.8 1941.2C5679.83 1953.2 5651.71 1949.25 5637.66 1961.26C5623.6 1973.27 5609.54 2047.36 5621.69 2055.41C5633.7 2063.47 5481.53 2089.53 5503.5 1987.32C5525.47 1884.97 5661.67 1704.71 5685.69 1728.87Z" fill="#E2D4B7"/>
<path d="M5433.35 2097.29C5433.35 2097.29 5355.29 2137.42 5393.22 2329.68C5431.3 2521.95 5455.32 2550.07 5455.32 2550.07C5455.32 2550.07 5455.32 2574.08 5535.43 2564.13C5615.54 2554.02 5471.43 2075.33 5433.35 2097.29Z" fill="#30549D"/>
<path d="M5435.25 2087.34C5435.25 2087.34 5351.19 2149.43 5421.19 2301.72C5491.34 2453.86 5525.32 2526.05 5493.25 2618.16C5461.17 2710.27 5360.27 2717.44 5389.12 2960.67C5412.7 3159.53 5403.18 3379.32 5403.18 3379.32H5449.31V3253.1L5503.35 3377.27H5791.87C5791.87 3377.27 5745.74 2964.62 5741.78 2902.53C5737.83 2840.45 5749.84 2716.27 5763.75 2634.12C5777.81 2551.97 5770.78 2477.58 5766.68 2439.66C5762.73 2401.58 5797.73 2329.69 5765.65 2261.59C5733.58 2193.5 5733.58 2063.32 5627.4 2063.32C5521.51 2063.32 5489.44 2043.26 5435.25 2087.34Z" fill="#3863C6"/>
<path d="M5699.75 1732.82C5699.75 1732.82 5628.57 1659.46 5557.98 1672.49C5462.2 1690.21 5501.3 1754.05 5497.64 1754.05C5482.41 1754.05 5441.26 1800.91 5449.16 1830.93C5457.22 1860.95 5421.05 1850.99 5395.12 1884.97C5369.05 1919.08 5391.32 1955.99 5423.1 1947.05C5423.1 1947.05 5391.17 1963.16 5366.42 1995.08C5333.61 2037.26 5306.08 2158.21 5442.57 2177.69C5560.32 2194.53 5619.2 2125.12 5596.79 2076.65C5564.86 2007.53 5587.13 2030.37 5611.44 1961.11C5625.5 1920.99 5621.4 1890.97 5611.44 1850.99C5601.48 1810.87 5621.4 1820.97 5633.41 1836.94C5645.41 1852.9 5653.47 1808.97 5647.46 1794.91C5641.46 1780.85 5671.48 1784.95 5683.49 1770.89C5695.8 1756.84 5699.75 1732.82 5699.75 1732.82Z" fill="#202D47"/>
<path d="M5775.91 2447.86C5775.91 2447.86 5801.98 2399.83 5807.98 2397.78C5813.99 2395.73 5844.01 2423.84 5838 2455.91C5832 2487.98 5807.98 2562.08 5779.86 2556.07C5751.89 2549.92 5775.91 2447.86 5775.91 2447.86Z" fill="#30549D"/>
<path d="M5701.8 2107.4C5701.8 2107.4 5621.69 2175.49 5675.73 2341.69C5729.77 2507.9 5739.88 2568.08 5779.86 2555.93C5819.99 2543.92 5801.83 2471.87 5781.91 2391.63C5761.85 2311.67 5731.82 2073.28 5701.8 2107.4Z" fill="#30549D"/>
<path d="M5599.87 4256.02C5599.87 4256.02 5629.16 4277.11 5640.14 4294.68C5650.39 4311.23 5662.84 4342.12 5675.14 4340.07C5687.45 4338.02 5699.9 4313.28 5695.79 4303.03C5691.69 4292.78 5671.04 4278.28 5671.04 4278.28L5724.65 4257.63C5724.65 4257.63 5741.2 4267.88 5728.75 4292.63C5716.45 4317.38 5693.74 4360.72 5681.3 4362.77C5668.99 4364.82 5631.79 4325.72 5621.54 4325.72C5611.29 4325.72 5607.04 4378.29 5607.04 4378.29L5598.84 4375.22L5588.59 4311.37C5588.44 4311.23 5581.27 4269.93 5599.87 4256.02Z" fill="#30549D"/>
<path d="M5456.05 4237.42C5456.05 4237.42 5493.39 4238.89 5511.7 4269.93C5527.22 4296.14 5546.85 4325.87 5557.54 4319.43C5568.23 4312.98 5552.27 4297.61 5553.44 4296.73C5558.57 4292.63 5583.9 4297.32 5583.32 4311.23C5583.02 4318.99 5583.9 4321.04 5571.45 4331.87C5550.66 4350.03 5531.76 4355.01 5516.24 4353.55C5503.79 4352.23 5494.27 4304.93 5484.75 4308.74C5475.23 4312.54 5470.98 4364.82 5470.98 4364.82L5460.15 4362.77L5449.31 4305.08C5449.31 4304.93 5443.6 4260.71 5456.05 4237.42Z" fill="#30549D"/>
</g>
<defs>
<clipPath id="clip0_1_2037">
<rect width="6805" height="4536" fill="white"/>
</clipPath>
</defs>
</svg>
